{
	"asset":{
		"generator":"Khronos glTF Blender I/O v4.0.44",
		"version":"2.0"
	},
	"scene":0,
	"scenes":[
		{
			"name":"Scene",
			"nodes":[
				0
			]
		}
	],
	"nodes":[
		{
			"mesh":0,
			"name":"Curve.005"
		}
	],
	"meshes":[
		{
			"name":"Curve.012",
			"primitives":[
				{
					"attributes":{
						"POSITION":0,
						"NORMAL":1
					},
					"indices":2
				}
			]
		}
	],
	"accessors":[
		{
			"bufferView":0,
			"componentType":5126,
			"count":3936,
			"max":[
				0.6380965709686279,
				0.14621229469776154,
				0.3239099681377411
			],
			"min":[
				-0.6412516832351685,
				-0.15777888894081116,
				-0.3279520869255066
			],
			"type":"VEC3"
		},
		{
			"bufferView":1,
			"componentType":5126,
			"count":3936,
			"type":"VEC3"
		},
		{
			"bufferView":2,
			"componentType":5123,
			"count":3936,
			"type":"SCALAR"
		}
	],
	"bufferViews":[
		{
			"buffer":0,
			"byteLength":47232,
			"byteOffset":0,
			"target":34962
		},
		{
			"buffer":0,
			"byteLength":47232,
			"byteOffset":47232,
			"target":34962
		},
		{
			"buffer":0,
			"byteLength":7872,
			"byteOffset":94464,
			"target":34963
		}
	],
	"buffers":[
		{
			"byteLength":102336,
			"uri":"2Dlines.bin"
		}
	]
}
