{
	"asset":{
		"generator":"Khronos glTF Blender I/O v4.0.44",
		"version":"2.0"
	},
	"scene":0,
	"scenes":[
		{
			"name":"Scene",
			"nodes":[
				0
			]
		}
	],
	"nodes":[
		{
			"mesh":0,
			"name":"Curve.002",
			"scale":[
				0.3026472330093384,
				0.18624384701251984,
				0.3026472330093384
			]
		}
	],
	"meshes":[
		{
			"name":"Curve.002",
			"primitives":[
				{
					"attributes":{
						"POSITION":0,
						"NORMAL":1
					},
					"indices":2
				}
			]
		}
	],
	"accessors":[
		{
			"bufferView":0,
			"componentType":5126,
			"count":69512,
			"max":[
				2.2862548828125,
				0.9121614098548889,
				2.8693299293518066
			],
			"min":[
				-3.044015884399414,
				-1.1856683492660522,
				-2.3942065238952637
			],
			"type":"VEC3"
		},
		{
			"bufferView":1,
			"componentType":5126,
			"count":69512,
			"type":"VEC3"
		},
		{
			"bufferView":2,
			"componentType":5125,
			"count":109908,
			"type":"SCALAR"
		}
	],
	"bufferViews":[
		{
			"buffer":0,
			"byteLength":834144,
			"byteOffset":0,
			"target":34962
		},
		{
			"buffer":0,
			"byteLength":834144,
			"byteOffset":834144,
			"target":34962
		},
		{
			"buffer":0,
			"byteLength":439632,
			"byteOffset":1668288,
			"target":34963
		}
	],
	"buffers":[
		{
			"byteLength":2107920,
			"uri":"2Drecycle.bin"
		}
	]
}
