{
	"asset":{
		"generator":"Khronos glTF Blender I/O v4.0.44",
		"version":"2.0"
	},
	"scene":0,
	"scenes":[
		{
			"name":"Scene",
			"nodes":[
				0
			]
		}
	],
	"nodes":[
		{
			"mesh":0,
			"name":"pCube9.002",
			"rotation":[
				0.5220328569412231,
				0.48380449414253235,
				-0.4948284327983856,
				0.4985576570034027
			],
			"scale":[
				0.07043237239122391,
				0.07043237239122391,
				0.07043235003948212
			],
			"translation":[
				-0.08545493334531784,
				0.1974480152130127,
				-0.1461549997329712
			]
		}
	],
	"materials":[
		{
			"doubleSided":true,
			"name":"Material.003",
			"pbrMetallicRoughness":{}
		}
	],
	"meshes":[
		{
			"name":"\u7f51\u683c.001",
			"primitives":[
				{
					"attributes":{
						"POSITION":0,
						"NORMAL":1
					},
					"indices":2,
					"material":0
				}
			]
		}
	],
	"accessors":[
		{
			"bufferView":0,
			"componentType":5126,
			"count":357536,
			"max":[
				2.4752910137176514,
				2.3633193969726562,
				3.8971385955810547
			],
			"min":[
				-2.620021104812622,
				-2.3211476802825928,
				-3.7367594242095947
			],
			"type":"VEC3"
		},
		{
			"bufferView":1,
			"componentType":5126,
			"count":357536,
			"type":"VEC3"
		},
		{
			"bufferView":2,
			"componentType":5125,
			"count":538452,
			"type":"SCALAR"
		}
	],
	"bufferViews":[
		{
			"buffer":0,
			"byteLength":4290432,
			"byteOffset":0,
			"target":34962
		},
		{
			"buffer":0,
			"byteLength":4290432,
			"byteOffset":4290432,
			"target":34962
		},
		{
			"buffer":0,
			"byteLength":2153808,
			"byteOffset":8580864,
			"target":34963
		}
	],
	"buffers":[
		{
			"byteLength":10734672,
			"uri":"boy.bin"
		}
	]
}
