{
	"asset":{
		"generator":"Khronos glTF Blender I/O v4.0.44",
		"version":"2.0"
	},
	"scene":0,
	"scenes":[
		{
			"name":"Scene",
			"nodes":[
				0
			]
		}
	],
	"nodes":[
		{
			"mesh":0,
			"name":"\u7acb\u65b9\u4f53.032",
			"rotation":[
				0,
				0,
				0.13751929998397827,
				0.9904991984367371
			],
			"scale":[
				1.0178896188735962,
				1.0178896188735962,
				1.0178896188735962
			]
		}
	],
	"materials":[
		{
			"doubleSided":true,
			"name":"Material.028",
			"pbrMetallicRoughness":{
				"metallicFactor":0
			}
		}
	],
	"meshes":[
		{
			"name":"\u7acb\u65b9\u4f53.001",
			"primitives":[
				{
					"attributes":{
						"POSITION":0,
						"NORMAL":1
					},
					"indices":2,
					"material":0
				}
			]
		}
	],
	"accessors":[
		{
			"bufferView":0,
			"componentType":5126,
			"count":71996,
			"max":[
				0.45622703433036804,
				1.0529496669769287,
				0.9432968497276306
			],
			"min":[
				-0.3436073958873749,
				-0.9470506310462952,
				-1.0115946531295776
			],
			"type":"VEC3"
		},
		{
			"bufferView":1,
			"componentType":5126,
			"count":71996,
			"type":"VEC3"
		},
		{
			"bufferView":2,
			"componentType":5125,
			"count":281088,
			"type":"SCALAR"
		}
	],
	"bufferViews":[
		{
			"buffer":0,
			"byteLength":863952,
			"byteOffset":0,
			"target":34962
		},
		{
			"buffer":0,
			"byteLength":863952,
			"byteOffset":863952,
			"target":34962
		},
		{
			"buffer":0,
			"byteLength":1124352,
			"byteOffset":1727904,
			"target":34963
		}
	],
	"buffers":[
		{
			"byteLength":2852256,
			"uri":"data.bin"
		}
	]
}
