{
	"asset":{
		"generator":"Khronos glTF Blender I/O v4.0.44",
		"version":"2.0"
	},
	"scene":0,
	"scenes":[
		{
			"name":"Scene",
			"nodes":[
				0
			]
		}
	],
	"nodes":[
		{
			"mesh":0,
			"name":"earth21 2"
		}
	],
	"meshes":[
		{
			"name":"earth21 2.001",
			"primitives":[
				{
					"attributes":{
						"COLOR_0":0,
						"POSITION":1,
						"NORMAL":2
					},
					"indices":3
				}
			]
		}
	],
	"accessors":[
		{
			"bufferView":0,
			"componentType":5126,
			"count":266000,
			"type":"VEC4"
		},
		{
			"bufferView":1,
			"componentType":5126,
			"count":266000,
			"max":[
				6.003788471221924,
				6.086953163146973,
				6.017749786376953
			],
			"min":[
				-6.0109782218933105,
				-6.012046813964844,
				-6.042482376098633
			],
			"type":"VEC3"
		},
		{
			"bufferView":2,
			"componentType":5126,
			"count":266000,
			"type":"VEC3"
		},
		{
			"bufferView":3,
			"componentType":5125,
			"count":266058,
			"type":"SCALAR"
		}
	],
	"bufferViews":[
		{
			"buffer":0,
			"byteLength":4256000,
			"byteOffset":0,
			"target":34962
		},
		{
			"buffer":0,
			"byteLength":3192000,
			"byteOffset":4256000,
			"target":34962
		},
		{
			"buffer":0,
			"byteLength":3192000,
			"byteOffset":7448000,
			"target":34962
		},
		{
			"buffer":0,
			"byteLength":1064232,
			"byteOffset":10640000,
			"target":34963
		}
	],
	"buffers":[
		{
			"byteLength":11704232,
			"uri":"earth.bin"
		}
	]
}
