{
	"asset":{
		"generator":"Khronos glTF Blender I/O v4.0.44",
		"version":"2.0"
	},
	"scene":0,
	"scenes":[
		{
			"name":"Scene",
			"nodes":[
				0
			]
		}
	],
	"nodes":[
		{
			"mesh":0,
			"name":"\u67f1\u4f53.026",
			"rotation":[
				-0.1892770230770111,
				-0.6789137125015259,
				-0.1976766437292099,
				0.6813033819198608
			],
			"scale":[
				1.3148889541625977,
				1.3148889541625977,
				1.3148889541625977
			]
		}
	],
	"meshes":[
		{
			"name":"\u67f1\u4f53.028",
			"primitives":[
				{
					"attributes":{
						"POSITION":0,
						"NORMAL":1
					},
					"indices":2
				}
			]
		}
	],
	"accessors":[
		{
			"bufferView":0,
			"componentType":5126,
			"count":64821,
			"max":[
				0.5055025815963745,
				0.943595826625824,
				0.2523355185985565
			],
			"min":[
				-0.5073786973953247,
				-0.38438114523887634,
				-0.12240312248468399
			],
			"type":"VEC3"
		},
		{
			"bufferView":1,
			"componentType":5126,
			"count":64821,
			"type":"VEC3"
		},
		{
			"bufferView":2,
			"componentType":5123,
			"count":65766,
			"type":"SCALAR"
		}
	],
	"bufferViews":[
		{
			"buffer":0,
			"byteLength":777852,
			"byteOffset":0,
			"target":34962
		},
		{
			"buffer":0,
			"byteLength":777852,
			"byteOffset":777852,
			"target":34962
		},
		{
			"buffer":0,
			"byteLength":131532,
			"byteOffset":1555704,
			"target":34963
		}
	],
	"buffers":[
		{
			"byteLength":1687236,
			"uri":"file.bin"
		}
	]
}
