{
	"asset":{
		"generator":"Khronos glTF Blender I/O v4.0.44",
		"version":"2.0"
	},
	"scene":0,
	"scenes":[
		{
			"name":"Scene",
			"nodes":[
				0
			]
		}
	],
	"nodes":[
		{
			"mesh":0,
			"name":"\u67f1\u4f53.129",
			"rotation":[
				-0.001258737756870687,
				0.016536617651581764,
				-0.3712220788002014,
				0.9283959865570068
			],
			"scale":[
				2.524404764175415,
				1.6635786294937134,
				2.5358779430389404
			],
			"translation":[
				-0.6889686584472656,
				-0.7209514379501343,
				-0.9858627319335938
			]
		}
	],
	"materials":[
		{
			"doubleSided":true,
			"name":"\u6750\u8d28.001",
			"pbrMetallicRoughness":{
				"roughnessFactor":0
			}
		},
		{
			"doubleSided":true,
			"name":"\u6750\u8d28.003",
			"pbrMetallicRoughness":{
				"baseColorFactor":[
					0.6439670324325562,
					0.6439670324325562,
					0.6439670324325562,
					1
				]
			}
		}
	],
	"meshes":[
		{
			"name":"\u67f1\u4f53.001",
			"primitives":[
				{
					"attributes":{
						"POSITION":0,
						"NORMAL":1,
						"TEXCOORD_0":2
					},
					"indices":3,
					"material":0
				},
				{
					"attributes":{
						"POSITION":4,
						"NORMAL":5,
						"TEXCOORD_0":6
					},
					"indices":7,
					"material":1
				}
			]
		}
	],
	"accessors":[
		{
			"bufferView":0,
			"componentType":5126,
			"count":192,
			"max":[
				0.08860278129577637,
				0.3669288158416748,
				0.08860206604003906
			],
			"min":[
				-0.08860325813293457,
				-0.36692678928375244,
				-0.08860397338867188
			],
			"type":"VEC3"
		},
		{
			"bufferView":1,
			"componentType":5126,
			"count":192,
			"type":"VEC3"
		},
		{
			"bufferView":2,
			"componentType":5126,
			"count":192,
			"type":"VEC2"
		},
		{
			"bufferView":3,
			"componentType":5123,
			"count":372,
			"type":"SCALAR"
		},
		{
			"bufferView":4,
			"componentType":5126,
			"count":40374,
			"max":[
				0.43907082080841064,
				0.11004699766635895,
				0.43892061710357666
			],
			"min":[
				-0.49149322509765625,
				-0.17324134707450867,
				-0.42702269554138184
			],
			"type":"VEC3"
		},
		{
			"bufferView":5,
			"componentType":5126,
			"count":40374,
			"type":"VEC3"
		},
		{
			"bufferView":6,
			"componentType":5126,
			"count":40374,
			"type":"VEC2"
		},
		{
			"bufferView":7,
			"componentType":5123,
			"count":56604,
			"type":"SCALAR"
		}
	],
	"bufferViews":[
		{
			"buffer":0,
			"byteLength":2304,
			"byteOffset":0,
			"target":34962
		},
		{
			"buffer":0,
			"byteLength":2304,
			"byteOffset":2304,
			"target":34962
		},
		{
			"buffer":0,
			"byteLength":1536,
			"byteOffset":4608,
			"target":34962
		},
		{
			"buffer":0,
			"byteLength":744,
			"byteOffset":6144,
			"target":34963
		},
		{
			"buffer":0,
			"byteLength":484488,
			"byteOffset":6888,
			"target":34962
		},
		{
			"buffer":0,
			"byteLength":484488,
			"byteOffset":491376,
			"target":34962
		},
		{
			"buffer":0,
			"byteLength":322992,
			"byteOffset":975864,
			"target":34962
		},
		{
			"buffer":0,
			"byteLength":113208,
			"byteOffset":1298856,
			"target":34963
		}
	],
	"buffers":[
		{
			"byteLength":1412064,
			"uri":"gear.bin"
		}
	]
}
