{
    "asset" : {
        "generator" : "Khronos glTF Blender I/O v1.6.16",
        "version" : "2.0"
    },
    "scene" : 0,
    "scenes" : [
        {
            "name" : "Scene",
            "nodes" : [
                0,
                1,
                2,
                3,
                4
            ]
        }
    ],
    "nodes" : [
        {
            "mesh" : 0,
            "name" : "\u67f1\u4f53.135",
            "rotation" : [
                0.7984611988067627,
                0.05699538812041283,
                -0.26118871569633484,
                0.5394365787506104
            ],
            "scale" : [
                1.316313624382019,
                1.4882711172103882,
                1.3163129091262817
            ],
            "translation" : [
                -3.4135212898254395,
                -3.4649696350097656,
                0.13809221982955933
            ]
        },
        {
            "mesh" : 1,
            "name" : "\u67f1\u4f53.134",
            "rotation" : [
                0.1942453682422638,
                0.25627878308296204,
                -0.1405143290758133,
                0.9364004135131836
            ],
            "scale" : [
                12.144713401794434,
                12.144712448120117,
                9.97815990447998
            ],
            "translation" : [
                -3.3434865474700928,
                -3.4840784072875977,
                0.20732039213180542
            ]
        },
        {
            "mesh" : 2,
            "name" : "\u67f1\u4f53.133",
            "rotation" : [
                -0.19095651805400848,
                -0.39613771438598633,
                -0.3642054796218872,
                0.8209537267684937
            ],
            "scale" : [
                12.144710540771484,
                12.144709587097168,
                12.144712448120117
            ],
            "translation" : [
                -0.22566461563110352,
                1.1661162376403809,
                1.1390392780303955
            ]
        },
        {
            "mesh" : 3,
            "name" : "\u7acb\u65b9\u4f53.152",
            "rotation" : [
                0.12721671164035797,
                0.2953404486179352,
                -0.36068278551101685,
                0.8754986524581909
            ],
            "scale" : [
                14.958884239196777,
                14.958878517150879,
                14.958885192871094
            ],
            "translation" : [
                1.0804328918457031,
                2.338805675506592,
                -0.567735493183136
            ]
        },
        {
            "mesh" : 4,
            "name" : "\u7acb\u65b9\u4f53.151",
            "rotation" : [
                0.12721671164035797,
                0.2953404486179352,
                -0.36068278551101685,
                0.8754986524581909
            ],
            "scale" : [
                -0.4187954068183899,
                12.144706726074219,
                12.144712448120117
            ],
            "translation" : [
                2.745833396911621,
                1.7039809226989746,
                0.0285913348197937
            ]
        }
    ],
    "materials" : [
        {
            "doubleSided" : true,
            "name" : "Material.031",
            "pbrMetallicRoughness" : {
                "roughnessFactor" : 0
            }
        },
        {
            "doubleSided" : true,
            "name" : "\u6750\u8d28.212",
            "pbrMetallicRoughness" : {}
        },
        {
            "doubleSided" : true,
            "name" : "\u6750\u8d28.211",
            "pbrMetallicRoughness" : {}
        },
        {
            "doubleSided" : true,
            "name" : "Material.029",
            "pbrMetallicRoughness" : {
                "baseColorFactor" : [
                    0.5980294942855835,
                    0.5980294942855835,
                    0.5980294942855835,
                    1
                ],
                "metallicFactor" : 0
            }
        }
    ],
    "meshes" : [
        {
            "name" : "\u67f1\u4f53.007",
            "primitives" : [
                {
                    "attributes" : {
                        "POSITION" : 0,
                        "NORMAL" : 1,
                        "TEXCOORD_0" : 2
                    },
                    "indices" : 3,
                    "material" : 0
                }
            ]
        },
        {
            "name" : "\u67f1\u4f53.006",
            "primitives" : [
                {
                    "attributes" : {
                        "POSITION" : 4,
                        "NORMAL" : 5,
                        "TEXCOORD_0" : 6
                    },
                    "indices" : 7,
                    "material" : 1
                }
            ]
        },
        {
            "name" : "\u67f1\u4f53.005",
            "primitives" : [
                {
                    "attributes" : {
                        "POSITION" : 8,
                        "NORMAL" : 9,
                        "TEXCOORD_0" : 10
                    },
                    "indices" : 11,
                    "material" : 2
                }
            ]
        },
        {
            "name" : "\u7acb\u65b9\u4f53.008",
            "primitives" : [
                {
                    "attributes" : {
                        "POSITION" : 12,
                        "NORMAL" : 13,
                        "TEXCOORD_0" : 14
                    },
                    "indices" : 15,
                    "material" : 3
                }
            ]
        },
        {
            "name" : "\u7acb\u65b9\u4f53.007",
            "primitives" : [
                {
                    "attributes" : {
                        "POSITION" : 16,
                        "NORMAL" : 17,
                        "TEXCOORD_0" : 18
                    },
                    "indices" : 19,
                    "material" : 3
                }
            ]
        }
    ],
    "accessors" : [
        {
            "bufferView" : 0,
            "componentType" : 5126,
            "count" : 17289,
            "max" : [
                1.0000001192092896,
                1.0000001192092896,
                1.000669240951538
            ],
            "min" : [
                -1.0000001192092896,
                -1.0000001192092896,
                -0.999330997467041
            ],
            "type" : "VEC3"
        },
        {
            "bufferView" : 1,
            "componentType" : 5126,
            "count" : 17289,
            "type" : "VEC3"
        },
        {
            "bufferView" : 2,
            "componentType" : 5126,
            "count" : 17289,
            "type" : "VEC2"
        },
        {
            "bufferView" : 3,
            "componentType" : 5123,
            "count" : 75264,
            "type" : "SCALAR"
        },
        {
            "bufferView" : 4,
            "componentType" : 5126,
            "count" : 366,
            "max" : [
                0.08478224277496338,
                0.06946945190429688,
                0.5937862992286682
            ],
            "min" : [
                -0.08478223532438278,
                -0.06946945190429688,
                -0.5937862396240234
            ],
            "type" : "VEC3"
        },
        {
            "bufferView" : 5,
            "componentType" : 5126,
            "count" : 366,
            "type" : "VEC3"
        },
        {
            "bufferView" : 6,
            "componentType" : 5126,
            "count" : 366,
            "type" : "VEC2"
        },
        {
            "bufferView" : 7,
            "componentType" : 5123,
            "count" : 372,
            "type" : "SCALAR"
        },
        {
            "bufferView" : 8,
            "componentType" : 5126,
            "count" : 6056,
            "max" : [
                0.08263863623142242,
                0.35257014632225037,
                0.1152256578207016
            ],
            "min" : [
                -0.08458773791790009,
                -0.5355390310287476,
                -0.13824023306369781
            ],
            "type" : "VEC3"
        },
        {
            "bufferView" : 9,
            "componentType" : 5126,
            "count" : 6056,
            "type" : "VEC3"
        },
        {
            "bufferView" : 10,
            "componentType" : 5126,
            "count" : 6056,
            "type" : "VEC2"
        },
        {
            "bufferView" : 11,
            "componentType" : 5123,
            "count" : 7668,
            "type" : "SCALAR"
        },
        {
            "bufferView" : 12,
            "componentType" : 5126,
            "count" : 1278,
            "max" : [
                0.03037927858531475,
                0.5024488568305969,
                0.4902653396129608
            ],
            "min" : [
                -0.027599336579442024,
                -0.28423961997032166,
                -0.32686570286750793
            ],
            "type" : "VEC3"
        },
        {
            "bufferView" : 13,
            "componentType" : 5126,
            "count" : 1278,
            "type" : "VEC3"
        },
        {
            "bufferView" : 14,
            "componentType" : 5126,
            "count" : 1278,
            "type" : "VEC2"
        },
        {
            "bufferView" : 15,
            "componentType" : 5123,
            "count" : 5004,
            "type" : "SCALAR"
        },
        {
            "bufferView" : 16,
            "componentType" : 5126,
            "count" : 10452,
            "max" : [
                1.0777591466903687,
                0.41223472356796265,
                0.4797942638397217
            ],
            "min" : [
                -0.9222409129142761,
                -0.41071468591690063,
                -0.5086994171142578
            ],
            "type" : "VEC3"
        },
        {
            "bufferView" : 17,
            "componentType" : 5126,
            "count" : 10452,
            "type" : "VEC3"
        },
        {
            "bufferView" : 18,
            "componentType" : 5126,
            "count" : 10452,
            "type" : "VEC2"
        },
        {
            "bufferView" : 19,
            "componentType" : 5123,
            "count" : 46116,
            "type" : "SCALAR"
        }
    ],
    "bufferViews" : [
        {
            "buffer" : 0,
            "byteLength" : 207468,
            "byteOffset" : 0
        },
        {
            "buffer" : 0,
            "byteLength" : 207468,
            "byteOffset" : 207468
        },
        {
            "buffer" : 0,
            "byteLength" : 138312,
            "byteOffset" : 414936
        },
        {
            "buffer" : 0,
            "byteLength" : 150528,
            "byteOffset" : 553248
        },
        {
            "buffer" : 0,
            "byteLength" : 4392,
            "byteOffset" : 703776
        },
        {
            "buffer" : 0,
            "byteLength" : 4392,
            "byteOffset" : 708168
        },
        {
            "buffer" : 0,
            "byteLength" : 2928,
            "byteOffset" : 712560
        },
        {
            "buffer" : 0,
            "byteLength" : 744,
            "byteOffset" : 715488
        },
        {
            "buffer" : 0,
            "byteLength" : 72672,
            "byteOffset" : 716232
        },
        {
            "buffer" : 0,
            "byteLength" : 72672,
            "byteOffset" : 788904
        },
        {
            "buffer" : 0,
            "byteLength" : 48448,
            "byteOffset" : 861576
        },
        {
            "buffer" : 0,
            "byteLength" : 15336,
            "byteOffset" : 910024
        },
        {
            "buffer" : 0,
            "byteLength" : 15336,
            "byteOffset" : 925360
        },
        {
            "buffer" : 0,
            "byteLength" : 15336,
            "byteOffset" : 940696
        },
        {
            "buffer" : 0,
            "byteLength" : 10224,
            "byteOffset" : 956032
        },
        {
            "buffer" : 0,
            "byteLength" : 10008,
            "byteOffset" : 966256
        },
        {
            "buffer" : 0,
            "byteLength" : 125424,
            "byteOffset" : 976264
        },
        {
            "buffer" : 0,
            "byteLength" : 125424,
            "byteOffset" : 1101688
        },
        {
            "buffer" : 0,
            "byteLength" : 83616,
            "byteOffset" : 1227112
        },
        {
            "buffer" : 0,
            "byteLength" : 92232,
            "byteOffset" : 1310728
        }
    ],
    "buffers" : [
        {
            "byteLength" : 1402960,
            "uri" : "data:application/octet-stream;base64,"
        }
    ]
}
