{
	"asset":{
		"generator":"Khronos glTF Blender I/O v4.0.44",
		"version":"2.0"
	},
	"scene":0,
	"scenes":[
		{
			"name":"Scene",
			"nodes":[
				0
			]
		}
	],
	"nodes":[
		{
			"mesh":0,
			"name":"\u7acb\u65b9\u4f53.005",
			"rotation":[
				0.00034414438414387405,
				0.11600126326084137,
				0.12490348517894745,
				0.9853642582893372
			],
			"scale":[
				5.418638229370117,
				5.418636322021484,
				5.418637275695801
			]
		}
	],
	"materials":[
		{
			"doubleSided":true,
			"name":"Material.004",
			"pbrMetallicRoughness":{
				"metallicFactor":0.20000000298023224,
				"roughnessFactor":0
			}
		},
		{
			"doubleSided":true,
			"name":"Material.005",
			"pbrMetallicRoughness":{}
		}
	],
	"meshes":[
		{
			"name":"Mesh_0.001",
			"primitives":[
				{
					"attributes":{
						"POSITION":0,
						"NORMAL":1,
						"TEXCOORD_0":2
					},
					"indices":3,
					"material":0
				},
				{
					"attributes":{
						"POSITION":4,
						"NORMAL":5,
						"TEXCOORD_0":6
					},
					"indices":7,
					"material":1
				}
			]
		}
	],
	"accessors":[
		{
			"bufferView":0,
			"componentType":5126,
			"count":80785,
			"max":[
				0.6284977197647095,
				0.7581002712249756,
				0.7406759262084961
			],
			"min":[
				-0.8818172216415405,
				-0.9146014451980591,
				-0.7638077735900879
			],
			"type":"VEC3"
		},
		{
			"bufferView":1,
			"componentType":5126,
			"count":80785,
			"type":"VEC3"
		},
		{
			"bufferView":2,
			"componentType":5126,
			"count":80785,
			"type":"VEC2"
		},
		{
			"bufferView":3,
			"componentType":5125,
			"count":95130,
			"type":"SCALAR"
		},
		{
			"bufferView":4,
			"componentType":5126,
			"count":6,
			"max":[
				0.31380778551101685,
				0.5232508182525635,
				0.4564189314842224
			],
			"min":[
				-0.06196856126189232,
				-0.21129533648490906,
				-0.3770718276500702
			],
			"type":"VEC3"
		},
		{
			"bufferView":5,
			"componentType":5126,
			"count":6,
			"type":"VEC3"
		},
		{
			"bufferView":6,
			"componentType":5126,
			"count":6,
			"type":"VEC2"
		},
		{
			"bufferView":7,
			"componentType":5123,
			"count":6,
			"type":"SCALAR"
		}
	],
	"bufferViews":[
		{
			"buffer":0,
			"byteLength":969420,
			"byteOffset":0,
			"target":34962
		},
		{
			"buffer":0,
			"byteLength":969420,
			"byteOffset":969420,
			"target":34962
		},
		{
			"buffer":0,
			"byteLength":646280,
			"byteOffset":1938840,
			"target":34962
		},
		{
			"buffer":0,
			"byteLength":380520,
			"byteOffset":2585120,
			"target":34963
		},
		{
			"buffer":0,
			"byteLength":72,
			"byteOffset":2965640,
			"target":34962
		},
		{
			"buffer":0,
			"byteLength":72,
			"byteOffset":2965712,
			"target":34962
		},
		{
			"buffer":0,
			"byteLength":48,
			"byteOffset":2965784,
			"target":34962
		},
		{
			"buffer":0,
			"byteLength":12,
			"byteOffset":2965832,
			"target":34963
		}
	],
	"buffers":[
		{
			"byteLength":2965844,
			"uri":"pc.bin"
		}
	]
}
