<svg width="32" height="32" viewBox="0 0 32 32" fill="none" xmlns="http://www.w3.org/2000/svg">
<path d="M4.18 0H27.7088C29.95 0 31.9413 1.94625 32 4.185V27.715C31.9742 28.8446 31.5134 29.9207 30.7137 30.719C29.9141 31.5173 28.8372 31.9761 27.7075 32H4.1875C3.07509 31.9483 2.02385 31.476 1.24644 30.6786C0.469042 29.8812 0.0235169 28.8184 0 27.705V4.195C0.05375 1.99125 1.97625 0.0625 4.18 0ZM6.27125 11.43C6.255 13.9138 6.26375 16.3988 6.25125 18.8838C6.261 18.9233 6.26138 18.9647 6.25239 19.0044C6.24339 19.0442 6.22525 19.0813 6.19942 19.1129C6.17358 19.1444 6.14075 19.1695 6.10353 19.1861C6.06632 19.2028 6.02573 19.2105 5.985 19.2088C5.68625 19.2263 5.38625 19.2163 5.08625 19.2188C5.2875 19.7188 5.505 20.2013 5.73 20.685C6.295 20.6663 6.94 20.7837 7.4225 20.4137C7.85625 20.0912 7.995 19.5175 7.98625 19.0013C7.98625 16.4775 7.98625 13.9525 7.975 11.4287C7.4075 11.4262 6.83875 11.425 6.27125 11.43ZM13.2812 11.3175C12.8579 12.29 12.4263 13.2583 11.9863 14.2225C11.8613 14.5112 11.71 14.8937 11.9725 15.155C12.3087 15.46 12.8025 15.3425 13.215 15.37C12.9288 16.0925 12.5525 16.7787 12.3112 17.5187C12.1775 17.8837 12.5113 18.255 12.8763 18.2588C13.5375 18.3038 14.2013 18.2587 14.8638 18.2762C15.08 17.7925 15.2975 17.31 15.51 16.8237C15.1237 16.8237 14.7337 16.8513 14.3537 16.775C14.765 15.7425 15.2525 14.7438 15.6888 13.7238C15.155 13.6613 14.5513 13.835 14.0638 13.6275C14.3013 12.8275 14.7337 12.0937 15.0387 11.315C14.4512 11.3125 13.8662 11.3088 13.2812 11.3175ZM22.375 11.3237V11.975C21.9925 11.975 21.61 11.975 21.2275 11.975C21.2275 12.5583 21.2275 13.1388 21.2275 13.7163C21.6113 13.7163 21.9938 13.7163 22.3763 13.7238C22.3863 14.2238 22.3863 14.7271 22.3763 15.2337C21.8013 15.245 21.225 15.2338 20.65 15.2425C20.6425 15.8225 20.6438 16.4012 20.65 16.98C21.2263 16.9862 21.8038 16.98 22.38 16.98C22.38 18.2125 22.38 19.4462 22.38 20.6787C22.9575 20.6787 23.5338 20.6787 24.1113 20.6787C24.1113 19.4462 24.1113 18.2142 24.1113 16.9825C24.9538 16.9825 25.795 16.97 26.6375 16.9825C26.9338 16.9575 27.2725 17.165 27.2625 17.4912C27.2856 17.9526 27.2856 18.4149 27.2625 18.8763C27.2669 18.951 27.2415 19.0245 27.1918 19.0805C27.1421 19.1365 27.0722 19.1705 26.9975 19.175C26.5163 19.21 26.0338 19.175 25.5513 19.1912C25.7638 19.6912 25.97 20.1913 26.2113 20.685C27.005 20.6438 27.975 20.8438 28.58 20.185C29.155 19.6525 28.9825 18.81 29.0062 18.115C28.97 17.3838 29.1487 16.5575 28.695 15.9175C28.3087 15.375 27.6125 15.2275 26.985 15.2163C26.9475 14.3413 27.1563 13.3175 26.5125 12.6063C25.9125 11.9338 24.9462 11.9312 24.1162 11.9637V11.3138C23.5287 11.32 22.9513 11.3212 22.375 11.3237ZM16.1975 11.9762C16.1975 12.5596 16.1975 13.1396 16.1975 13.7163C16.56 13.7163 16.9212 13.7163 17.2837 13.7163C17.2837 15.455 17.2837 17.195 17.2837 18.9338C16.765 18.9425 16.245 18.9337 15.7262 18.94C15.4575 19.5175 15.195 20.0975 14.9338 20.6775C16.8688 20.685 18.8088 20.6775 20.7388 20.6775C20.7388 20.0992 20.7388 19.52 20.7388 18.94C20.1825 18.94 19.625 18.94 19.0687 18.9338C19.0687 17.1938 19.0687 15.4533 19.0687 13.7125C19.4325 13.7125 19.795 13.7125 20.1587 13.7125C20.1587 13.1325 20.1587 12.5512 20.1587 11.9712C18.8412 11.9737 17.52 11.9712 16.1975 11.9762ZM27.6162 12.1362C27.1312 12.5037 27.29 13.1763 27.2687 13.7C27.5925 13.7 27.9175 13.7175 28.2412 13.6888C28.7612 13.6413 29.1525 13.035 28.9437 12.545C28.78 12.0075 28.0537 11.7737 27.6162 12.1362ZM3.375 13.715C3.2875 14.855 3.19875 15.9938 3.11625 17.1338C3.0971 17.3927 3.04155 17.6478 2.95125 17.8913C3.24375 18.56 3.53625 19.2288 3.84875 19.8913C4.54875 18.955 4.80875 17.775 4.88125 16.6287C4.9425 15.6537 5.05125 14.68 5.08625 13.7038C4.5125 13.7238 3.9425 13.71 3.375 13.715ZM9.14125 13.715C9.22458 14.7725 9.30792 15.8296 9.39125 16.8862C9.4825 17.9462 9.75625 19.0262 10.4038 19.8862C10.7125 19.225 11.0075 18.5575 11.3 17.8862C11.2052 17.6423 11.1462 17.3859 11.125 17.125C11.0425 15.9887 10.9525 14.8525 10.865 13.7163C10.2883 13.7129 9.7125 13.7125 9.1375 13.715H9.14125ZM11.2863 20.5513C12.1713 20.8125 13.1088 20.6337 14.0175 20.6825C14.285 20.1037 14.5512 19.5237 14.8112 18.9412C13.9025 18.9062 12.9775 19.0362 12.0863 18.8075C11.8138 19.3867 11.5458 19.9679 11.2825 20.5513H11.2863Z" fill="#FF2626"/>
<path d="M24.1033 13.7215C24.4783 13.7752 24.9783 13.569 25.2646 13.8715C25.3121 14.3277 25.2771 14.7865 25.2821 15.2465C24.8933 15.2465 24.5033 15.2465 24.1146 15.2465C24.1071 14.7382 24.1033 14.2298 24.1033 13.7215Z" fill="#FF2626"/>
<path d="M6.26667 11.4298C6.83417 11.4298 7.40291 11.4298 7.97041 11.4298C7.98666 13.9536 7.98042 16.4786 7.98167 19.0023C7.99042 19.5186 7.85667 20.0923 7.41792 20.4148C6.93542 20.7898 6.29291 20.6648 5.72541 20.6861C5.50041 20.2023 5.28292 19.7148 5.08167 19.2198C5.38167 19.2198 5.68167 19.2273 5.98042 19.2098C6.02115 19.2116 6.06173 19.2038 6.09895 19.1872C6.13617 19.1705 6.16899 19.1455 6.19483 19.1139C6.22067 19.0824 6.23881 19.0453 6.2478 19.0055C6.2568 18.9657 6.25641 18.9244 6.24667 18.8848C6.25917 16.3986 6.24542 13.9136 6.26667 11.4298Z" fill="white"/>
<path d="M13.2799 11.3168C13.8649 11.3081 14.4499 11.3168 15.0299 11.3168C14.7249 12.0956 14.2924 12.8293 14.0549 13.6293C14.5449 13.8368 15.1486 13.6631 15.6799 13.7256C15.2436 14.7456 14.7561 15.7443 14.3449 16.7768C14.7199 16.8531 15.1149 16.8256 15.5011 16.8256C15.2886 17.3118 15.0711 17.7943 14.8549 18.2781C14.1924 18.2668 13.5286 18.3056 12.8674 18.2606C12.5024 18.2606 12.1686 17.8856 12.3024 17.5206C12.5436 16.7806 12.9199 16.0943 13.2061 15.3718C12.7936 15.3443 12.2999 15.4618 11.9636 15.1568C11.7011 14.8956 11.8536 14.5131 11.9774 14.2243C12.4199 13.2577 12.854 12.2885 13.2799 11.3168Z" fill="white"/>
<path d="M22.3683 11.3238C22.9446 11.3238 23.5221 11.3238 24.0983 11.3238V11.9738C24.9283 11.9413 25.8946 11.9438 26.4946 12.6163C27.1383 13.3276 26.9296 14.3538 26.9671 15.2263C27.5921 15.2376 28.2908 15.3851 28.6771 15.9276C29.1308 16.5676 28.9521 17.3938 28.9883 18.1251C28.9646 18.8213 29.1371 19.6626 28.5621 20.1951C27.9571 20.8488 26.9871 20.6488 26.1933 20.6951C25.9521 20.2063 25.7458 19.7026 25.5333 19.2013C26.0158 19.1876 26.4983 19.2201 26.9796 19.1851C27.0543 19.1806 27.1242 19.1466 27.1739 19.0906C27.2236 19.0345 27.249 18.9611 27.2446 18.8863C27.2677 18.4249 27.2677 17.9627 27.2446 17.5013C27.2533 17.1751 26.9146 16.9676 26.6196 16.9926C25.7771 16.9801 24.9358 16.9926 24.0933 16.9926C24.0933 18.2251 24.0933 19.4572 24.0933 20.6888C23.5158 20.6888 22.9396 20.6888 22.3621 20.6888C22.3621 19.4563 22.3621 18.2226 22.3621 16.9901C21.7858 16.9901 21.2083 16.9901 20.6321 16.9901C20.6321 16.4113 20.6321 15.8326 20.6321 15.2526C21.2071 15.2526 21.7833 15.2526 22.3583 15.2438C22.3692 14.7438 22.3692 14.2405 22.3583 13.7338C21.9758 13.7276 21.5933 13.7226 21.2096 13.7263C21.2096 13.143 21.2096 12.5626 21.2096 11.9851C21.5921 11.9851 21.9746 11.9851 22.3571 11.9851L22.3683 11.3238ZM24.0896 13.7213C24.0896 14.2297 24.0933 14.738 24.1008 15.2463C24.4896 15.2463 24.8796 15.2463 25.2683 15.2463C25.2683 14.7888 25.2983 14.3301 25.2508 13.8713C24.9646 13.5688 24.4646 13.7751 24.0896 13.7213Z" fill="white"/>
<path d="M16.1993 11.9762C17.5218 11.9762 18.843 11.9762 20.1643 11.9762C20.1643 12.5562 20.1643 13.1375 20.1643 13.7175C19.8005 13.7175 19.438 13.7175 19.0743 13.7175C19.0743 15.4583 19.0743 17.1987 19.0743 18.9387C19.6305 18.945 20.188 18.9387 20.7443 18.945C20.7443 19.5233 20.7443 20.1025 20.7443 20.6825C18.8093 20.6825 16.8693 20.6825 14.9393 20.6825C15.2005 20.1025 15.463 19.5225 15.7318 18.945C16.2505 18.945 16.7705 18.945 17.2893 18.9387C17.2893 17.2 17.2893 15.46 17.2893 13.7212C16.9268 13.7212 16.5655 13.7212 16.203 13.7212C16.198 13.1379 16.1968 12.5562 16.1993 11.9762Z" fill="white"/>
<path d="M27.6129 12.1359C28.0504 11.7734 28.7766 12.0109 28.9404 12.5446C29.1491 13.0346 28.7579 13.6409 28.2379 13.6884C27.9141 13.7171 27.5891 13.7009 27.2654 13.6996C27.2866 13.1759 27.1279 12.4996 27.6129 12.1359Z" fill="white"/>
<path d="M3.36943 13.7143C3.94068 13.7143 4.51068 13.7231 5.08068 13.7006C5.04568 14.6768 4.93693 15.6506 4.87568 16.6256C4.80318 17.7718 4.54318 18.9518 3.84318 19.8881C3.53068 19.2281 3.23818 18.5593 2.94568 17.8881C3.03598 17.6446 3.09153 17.3896 3.11068 17.1306C3.18943 15.9993 3.27818 14.8543 3.36943 13.7143Z" fill="white"/>
<path d="M9.13037 13.7151C9.7062 13.7151 10.2825 13.7151 10.8591 13.7151C10.9466 14.8514 11.0366 15.9876 11.1191 17.1239C11.1364 17.3868 11.192 17.6457 11.2841 17.8926C10.9916 18.5614 10.6966 19.2289 10.3879 19.8926C9.74037 19.0289 9.46662 17.9489 9.37537 16.8926C9.28412 15.8364 9.21412 14.7726 9.13037 13.7151Z" fill="white"/>
<path d="M11.2725 20.5519C11.5366 19.9686 11.8033 19.3874 12.0725 18.8082C12.9637 19.0369 13.8887 18.9069 14.7975 18.9419C14.5375 19.5244 14.2712 20.1044 14.0037 20.6832C13.095 20.6344 12.1575 20.8132 11.2725 20.5519Z" fill="white"/>
</svg>
