<svg width="32" height="32" viewBox="0 0 32 32" fill="none" xmlns="http://www.w3.org/2000/svg">
<rect width="32" height="32" rx="10" fill="white"/>
<path d="M16.212 30H16.2038C12.1222 29.972 8.98438 28.5944 6.87519 25.9064C5.00125 23.5124 4.03283 20.1832 4 16.0112V15.9916C4.03283 11.8168 5.00125 8.4904 6.87792 6.0964C8.98438 3.4056 12.1249 2.028 16.2038 2H16.212H16.2202C19.3498 2.0224 21.9679 2.8456 24.0005 4.4472C25.9127 5.9536 27.2586 8.0984 28 10.8256L25.6747 11.4892C24.4163 6.8692 21.232 4.5088 16.2093 4.4724C12.8937 4.4976 10.385 5.5644 8.75459 7.642C7.23082 9.588 6.44295 12.3992 6.41286 16C6.44295 19.6008 7.23082 22.412 8.75732 24.358C10.3878 26.4384 12.8964 27.5052 16.212 27.5276C19.2021 27.5052 21.18 26.7912 22.8241 25.142C24.7008 23.2604 24.668 20.9504 24.0661 19.5448C23.7132 18.716 23.0703 18.0272 22.2031 17.5036C21.9843 19.08 21.4946 20.3568 20.7395 21.32C19.7301 22.6052 18.2993 23.308 16.4883 23.4088C15.1177 23.4844 13.7964 23.154 12.7733 22.4736C11.5614 21.67 10.8528 20.4436 10.7762 19.0156C10.7024 17.6268 11.2413 16.35 12.2918 15.4204C13.2958 14.5328 14.7074 14.012 16.3762 13.914C17.6045 13.844 18.7562 13.9 19.8176 14.0792C19.6754 13.214 19.3909 12.5252 18.9641 12.0296C18.3787 11.3464 17.4732 10.9992 16.2749 10.9908C16.264 10.9908 16.253 10.9908 16.2421 10.9908C15.2792 10.9908 13.9715 11.2624 13.1399 12.5308L11.1374 11.156C12.2535 9.4592 14.0645 8.524 16.2421 8.524C16.2585 8.524 16.2749 8.524 16.2913 8.524C19.9325 8.5464 22.1019 10.8284 22.318 14.81C22.4411 14.8632 22.5642 14.9192 22.6846 14.9752C24.3835 15.7928 25.6254 17.0304 26.2793 18.5564C27.1875 20.6816 27.2723 24.1452 24.5148 26.9088C22.4056 29.02 19.8477 29.9748 16.2202 30H16.212ZM17.3555 16.3612C17.0792 16.3612 16.8002 16.3696 16.5129 16.3864C14.4202 16.5068 13.1152 17.4896 13.1891 18.8868C13.2657 20.3512 14.8442 21.0316 16.3625 20.9476C17.7577 20.872 19.5741 20.3148 19.8805 16.6188C19.1091 16.448 18.2638 16.3612 17.3555 16.3612Z" fill="black"/>
</svg>
