<svg width="32" height="32" viewBox="0 0 32 32" fill="none" xmlns="http://www.w3.org/2000/svg">
<path fill-rule="evenodd" clip-rule="evenodd" d="M0 16.0804C0 24.0402 5.76 30.6331 13.36 32L13.615 31.7903C13.5576 31.7805 13.5003 31.7704 13.4429 31.76V20.4799H9.44287V15.9998H13.4429V12.4798C13.4429 8.47976 16.0029 6.23973 19.6829 6.23973C20.8029 6.23973 22.0829 6.39974 23.2029 6.55974V10.6398H21.1229C19.2029 10.6398 18.7229 11.5998 18.7229 12.8798V15.9998H22.9629L22.2429 20.4799H18.7229V31.76C18.6195 31.7788 18.5161 31.7965 18.4127 31.8131L18.64 32C26.24 30.6331 32 24.0402 32 16.0804C32 7.23617 24.8 0 16 0C7.2 0 0 7.23617 0 16.0804Z" fill="url(#paint0_linear_10_207)"/>
<defs>
<linearGradient id="paint0_linear_10_207" x1="16.0008" y1="31.0423" x2="16.0008" y2="-0.00592383" gradientUnits="userSpaceOnUse">
<stop stop-color="#0066FF"/>
<stop offset="1" stop-color="#0066FF"/>
</linearGradient>
</defs>
</svg>
