<svg width="176" height="34" viewBox="0 0 176 34" fill="none" xmlns="http://www.w3.org/2000/svg">
<path d="M10.279 30.5535L10.2789 30.5536C9.44929 32.1282 7.51103 32.725 5.95105 31.8869C4.38922 31.0479 3.79452 29.0956 4.62778 27.5203L4.69956 27.3846C4.71911 27.3481 4.74257 27.3045 4.76981 27.2539C4.86373 27.0796 5.00197 26.8238 5.17827 26.4982C5.53083 25.8469 6.03528 24.9165 6.64105 23.8001C7.85259 21.5673 9.46925 18.5904 11.0863 15.6131C11.3721 15.0867 11.658 14.5604 11.9416 14.0382C13.2625 11.6062 14.535 9.26316 15.5335 7.4239C16.14 6.30681 16.6453 5.37552 16.9989 4.72304C17.1758 4.39682 17.3147 4.14021 17.4094 3.96489L17.5177 3.76398L17.5459 3.71106L17.5539 3.69591C18.0776 2.81684 18.7793 2.34431 19.5021 2.17203C20.2315 1.99819 21.0006 2.12596 21.6551 2.48073C22.9574 3.18669 23.7817 4.77234 22.9049 6.61153L10.279 30.5535Z" stroke="#9E9DAF" stroke-width="0.5"/>
<path d="M141.401 4.53623C142.733 5.15459 143.646 6.66955 142.896 8.53954L142.895 8.53931L133.018 30.3898C132.289 31.9997 130.403 32.7083 128.803 31.9799C127.203 31.248 126.496 29.3512 127.222 27.7404L127.27 27.6333C127.287 27.597 127.308 27.5516 127.333 27.4975C127.407 27.3382 127.515 27.1046 127.654 26.8072C127.932 26.2124 128.329 25.363 128.806 24.3437C129.76 22.3051 131.034 19.5874 132.308 16.8693C132.774 15.8747 133.24 14.88 133.691 13.9186C134.472 12.2526 135.206 10.6864 135.812 9.39289C136.29 8.3729 136.688 7.52248 136.967 6.92649C137.107 6.62851 137.216 6.39405 137.291 6.23378L137.376 6.05003L137.399 6.00157L137.405 5.98826C137.872 5.08653 138.54 4.57618 139.247 4.36172C139.96 4.14536 140.731 4.22501 141.401 4.53623Z" stroke="#9E9DAF" stroke-width="0.5"/>
<path d="M34.4135 5.66405L34.4136 5.66382C35.2033 4.1651 37.0667 3.59084 38.5699 4.37836L38.57 4.37844C40.0622 5.15886 40.6405 6.99128 39.8769 8.48009L39.7936 8.6425L39.7972 8.64612L28.6138 30.4974C28.0749 31.4494 27.3327 31.9703 26.5595 32.1698C25.7806 32.3707 24.9526 32.2498 24.2449 31.8852C23.5372 31.5207 22.9602 30.918 22.6756 30.1691C22.393 29.4258 22.3917 28.521 22.8623 27.5306L34.4135 5.66405Z" stroke="#9E9DAF" stroke-width="0.5"/>
<path d="M68.8566 25.7899L68.8566 25.79C68.0569 27.3713 66.1327 28.0013 64.5567 27.1997C62.9805 26.398 62.3512 24.4675 63.1512 22.8856L63.2185 22.7526C63.2279 22.7344 63.2383 22.7144 63.2496 22.6925C63.3152 22.5663 63.412 22.3812 63.5357 22.1455C63.783 21.6742 64.137 21.0014 64.5624 20.1943C65.413 18.58 66.5486 16.4286 67.6846 14.2767C67.8929 13.8823 68.1012 13.4878 68.3077 13.0966C69.2278 11.3538 70.1134 9.67624 70.8097 8.35635C71.2359 7.54829 71.5912 6.87419 71.8399 6.40119C71.9643 6.16473 72.0621 5.97835 72.1289 5.85058C72.1622 5.78676 72.188 5.73722 72.2055 5.70328L72.2262 5.66292L72.2313 5.65262C72.7413 4.7739 73.4341 4.29459 74.1528 4.11249C74.8783 3.92865 75.6477 4.0435 76.3064 4.38537C77.6172 5.06569 78.4645 6.62565 77.6264 8.46429L68.8566 25.7899Z" stroke="#9E9DAF" stroke-width="0.5"/>
<path d="M54.0779 21.0584L54.0501 21.1151L49.4851 30.4408C48.6959 32.0522 46.7417 32.7233 45.1226 31.9382L45.1221 31.9379C43.4676 31.1401 42.8046 29.1266 43.6618 27.5137L43.6621 27.5133L48.5152 18.3363C49.5352 16.5804 51.3185 16.3572 52.6571 17.0311C53.9806 17.6973 54.8499 19.2304 54.0779 21.0584Z" stroke="#9E9DAF" stroke-width="0.5"/>
<path d="M112.451 21.9715V20.4648L112.452 20.448C112.454 20.4311 112.455 20.4065 112.457 20.3746C112.46 20.3108 112.465 20.2181 112.468 20.1005C112.475 19.8653 112.478 19.5304 112.465 19.1288C112.438 18.3271 112.344 17.253 112.072 16.1749C111.8 15.0993 111.347 14.0003 110.589 13.1668C109.824 12.3252 108.758 11.7664 107.299 11.7664C104.2 11.7664 102.517 13.9952 101.622 16.1398C101.173 17.2162 100.913 18.2896 100.764 19.0918C100.69 19.4935 100.644 19.8286 100.616 20.0639C100.61 20.1163 100.605 20.1637 100.6 20.2059H91.9751C91.9757 20.1312 91.9776 20.0399 91.982 19.9338C91.9956 19.6037 92.0329 19.1301 92.1276 18.5609C92.3172 17.4216 92.736 15.9049 93.6517 14.39C95.4723 11.3778 99.292 8.31543 107.359 8.31543C111.393 8.31543 114.243 9.19208 116.254 10.4875C118.264 11.7821 119.454 13.507 120.15 15.2367C120.846 16.9694 121.047 18.7065 121.071 20.0143C121.083 20.6674 121.052 21.2111 121.017 21.5906C121.003 21.7468 120.989 21.875 120.976 21.9715H112.451Z" stroke="#9E9DAF" stroke-width="0.5"/>
<path d="M36.7197 20.144H29.42C29.8592 18.5654 30.8844 16.1445 32.8539 14.0686C34.9508 11.8584 38.125 10.0308 42.8358 10.0308C49.8459 10.0308 53.0736 12.6767 54.5692 15.2679C55.3225 16.5731 55.6458 17.8805 55.7803 18.8632C55.8474 19.3542 55.8673 19.7626 55.8704 20.047C55.8713 20.1263 55.8708 20.196 55.8698 20.255H48.1817C48.1812 20.2442 48.1806 20.2331 48.1799 20.2217C48.1699 20.0451 48.1499 19.7941 48.1101 19.4934C48.0306 18.8932 47.8711 18.0886 47.55 17.2804C47.2291 16.4729 46.7419 15.65 46.0002 15.0278C45.2539 14.4019 44.2632 13.9905 42.961 13.9905C40.5609 13.9905 39.0583 15.0269 38.1254 16.3549C37.2607 17.5858 36.893 19.055 36.7197 20.144Z" stroke="#9E9DAF" stroke-width="0.5"/>
<path d="M133.228 20.1445C133.647 18.5645 134.623 16.1414 136.499 14.0646C138.495 11.8552 141.513 10.0312 145.993 10.0312C152.66 10.0313 155.73 12.6722 157.155 15.2638C157.873 16.5697 158.181 17.8782 158.31 18.8622C158.374 19.3536 158.393 19.7625 158.396 20.0473C158.397 20.1267 158.396 20.1964 158.395 20.2555H151.098C151.097 20.2449 151.097 20.234 151.096 20.2228C151.086 20.0465 151.067 19.7958 151.03 19.4954C150.954 18.8959 150.802 18.0921 150.497 17.2848C150.192 16.4784 149.728 15.6553 149.021 15.0323C148.309 14.4047 147.361 13.991 146.115 13.991C143.82 13.991 142.386 15.0325 141.499 16.3601C140.677 17.5898 140.327 19.0568 140.161 20.1445H133.228Z" stroke="#9E9DAF" stroke-width="0.5"/>
<path d="M64.0962 23.3296H69.8766C69.8576 23.4983 69.837 23.7323 69.8277 24.0106C69.8083 24.5881 69.8372 25.365 70.0351 26.147C70.2329 26.929 70.6036 27.7312 71.279 28.3383C71.9587 28.9494 72.9236 29.3418 74.2672 29.3418C76.4552 29.3418 77.7915 28.3373 78.6052 27.0575C79.3541 25.8796 79.6569 24.4762 79.8105 23.4374H86.9041C86.5131 24.9576 85.6539 27.2728 83.8697 29.257C81.9683 31.3715 79.0039 33.1249 74.3853 33.1249C71.5879 33.1249 69.5603 32.4906 68.0884 31.5552C66.6164 30.6198 65.6837 29.3728 65.0931 28.1206C64.5015 26.8665 64.2541 25.609 64.1553 24.6623C64.106 24.1896 64.0938 23.7962 64.094 23.5221C64.094 23.4492 64.0949 23.3848 64.0962 23.3296Z" stroke="#9E9DAF" stroke-width="0.5"/>
<path d="M111.103 24.9381H120.09C119.353 26.6233 118.106 28.4882 115.993 29.9663C113.737 31.5449 110.475 32.6955 105.753 32.6955C101.834 32.6955 99.0307 31.9244 97.027 30.7845C95.0254 29.6456 93.8072 28.1304 93.0695 26.616C92.3304 25.0986 92.072 23.5778 91.9992 22.4333C91.9629 21.8617 91.973 21.386 91.9921 21.0542C91.9989 20.9352 92.0069 20.8349 92.0142 20.7554H100.625C100.623 20.7824 100.62 20.8111 100.618 20.8416C100.599 21.0735 100.578 21.4038 100.573 21.7998C100.562 22.5902 100.612 23.6501 100.857 24.7145C101.101 25.7772 101.545 26.8636 102.336 27.687C103.134 28.5176 104.269 29.0616 105.851 29.0616C107.201 29.0616 108.297 28.4651 109.169 27.6387C109.995 26.8554 110.629 25.8579 111.103 24.9381Z" stroke="#9E9DAF" stroke-width="0.5"/>
<path d="M79.8325 16.1802H63.082C61.8662 16.1802 60.8757 15.1901 60.8757 13.9637C60.8757 12.737 61.863 11.7471 63.082 11.7471L79.8325 11.7471C81.0482 11.7471 82.0387 12.7372 82.0387 13.9637C82.0387 15.1903 81.0515 16.1802 79.8325 16.1802Z" stroke="#9E9DAF" stroke-width="0.5"/>
<path d="M117.076 21.9711H105.623C104.485 21.9711 103.556 21.0317 103.556 19.8618C103.556 18.6919 104.485 17.7524 105.623 17.7524H117.076C118.214 17.7524 119.143 18.6919 119.143 19.8618C119.143 21.0317 118.214 21.9711 117.076 21.9711Z" stroke="#9E9DAF" stroke-width="0.5"/>
<path d="M143.205 27.7237C143.624 27.2638 144.261 26.9335 145.135 26.8935L172.145 26.7608C173.658 26.7545 174.876 27.9367 174.886 29.3926C174.895 30.8566 173.668 32.0581 172.145 32.0518L145.135 31.9191C143.413 31.8449 142.571 30.6272 142.57 29.4099C142.569 28.7964 142.783 28.1873 143.205 27.7237Z" stroke="#9E9DAF" stroke-width="0.5"/>
<mask id="path-14-outside-1_88_18233" maskUnits="userSpaceOnUse" x="-0.135986" y="-0.374756" width="173" height="34" fill="black">
<rect fill="white" x="-0.135986" y="-0.374756" width="173" height="34"/>
<path fill-rule="evenodd" clip-rule="evenodd" d="M19.9917 5.504L7.36338 29.4504C6.46955 31.1468 4.37933 31.7917 2.69602 30.8874C1.0127 29.9831 0.372767 27.8801 1.27007 26.1837C1.2625 26.1818 5.09211 19.1307 8.58452 12.7004L8.58587 12.6979L8.58597 12.6977C11.511 7.31216 14.1991 2.36287 14.1975 2.35648C16.4233 -1.39741 21.8802 1.55383 19.9917 5.504ZM139.986 7.42263L139.278 8.98775C140.355 8.71504 141.544 8.5613 142.854 8.5613C156.347 8.5613 155.497 19.2856 155.497 19.2856H147.717C147.717 19.2856 147.717 13.0211 142.976 13.0211C138.571 13.0211 137.539 16.9915 137.239 19.1745H134.674L130.109 29.2732C129.323 31.0086 127.289 31.7737 125.563 30.9877C123.836 30.1983 123.075 28.1534 123.857 26.418C123.849 26.4139 127.408 18.8205 130.321 12.6068L130.329 12.5899C132.341 8.29782 134.042 4.66841 134.042 4.66131C136.028 0.811462 141.615 3.39889 139.986 7.42611V7.42263ZM36.1691 8.93537L36.9662 7.37778L36.9627 7.37428C37.789 5.76328 37.1631 3.78104 35.5493 2.93701C33.9249 2.08598 31.9102 2.70586 31.0558 4.32738L19.5022 26.1986C17.5015 30.3977 23.4155 33.4376 25.6974 29.3961L30.9289 19.1743L33.7981 19.1743C34.1113 16.9912 35.1968 13.0208 39.8244 13.0208C43.3054 13.0208 44.3527 16.0828 44.6678 17.9253L40.3043 26.1765C39.3799 27.9156 40.0953 30.0842 41.8767 30.9432C43.6191 31.7881 45.7228 31.0664 46.5728 29.3308L51.1378 20.0051H51.1414C51.2496 19.7603 51.3303 19.5199 51.3859 19.2853H52.973C52.973 19.2853 53.8672 8.56107 39.6992 8.56107C38.4138 8.56107 37.24 8.69529 36.1691 8.93537ZM73.2349 10.2769L74.7151 7.35279C76.5223 3.40018 71.0415 0.559466 68.8728 4.31688C68.8728 4.32791 67.4512 7.02207 65.7329 10.2769H59.9452C58.5872 10.2769 57.4889 11.3798 57.4889 12.7435C57.4889 14.1073 58.5906 15.2101 59.9452 15.2101H63.1287C61.3199 18.6372 59.7858 21.5472 59.7915 21.5529C58.9296 23.2573 59.6073 25.3382 61.3068 26.2026C61.3422 26.2206 61.3777 26.238 61.4134 26.2546C62.4589 29.053 65.0221 32.1544 71.2486 32.1544C80.6311 32.1544 83.3743 25.0149 84.0862 21.967H76.4607L76.4572 21.9635C76.1725 24.0581 75.3183 27.8714 71.1305 27.8714C67.182 27.8714 66.8714 24.3604 66.9445 22.7045L70.7379 15.2101H76.6957C78.0537 15.2101 79.1519 14.1073 79.1519 12.7435C79.1519 11.3798 78.0503 10.2769 76.6957 10.2769H73.2349ZM88.5937 19.2358L97.6935 19.2358C97.6935 19.2358 98.2688 10.7963 104.164 10.7963C107.499 10.7963 108.595 13.8493 108.94 16.2828H102.487C101.206 16.2828 100.17 17.3384 100.17 18.6421C100.17 19.9457 101.206 21.0014 102.487 21.0014L109.067 21.0014H118.058C118.058 21.0014 120.506 6.84542 104.224 6.84542C87.9417 6.84542 88.5937 19.2358 88.5937 19.2358ZM107.817 23.4645C106.867 25.3556 105.254 27.5915 102.716 27.5915C96.6444 27.5915 97.7686 19.2853 97.7686 19.2853L88.656 19.2853C88.656 19.2853 86.8125 31.7255 102.618 31.7255C112.146 31.7255 115.875 27.0796 117.331 23.468H107.817V23.4645ZM169.009 25.2911L141.994 25.4239C138.243 25.5907 138.254 30.7928 141.994 30.9494L169.009 31.0822C170.664 31.089 172.012 29.7817 172.001 28.1714C171.991 26.5712 170.654 25.2843 169.009 25.2911Z"/>
</mask>
<path fill-rule="evenodd" clip-rule="evenodd" d="M19.9917 5.504L7.36338 29.4504C6.46955 31.1468 4.37933 31.7917 2.69602 30.8874C1.0127 29.9831 0.372767 27.8801 1.27007 26.1837C1.2625 26.1818 5.09211 19.1307 8.58452 12.7004L8.58587 12.6979L8.58597 12.6977C11.511 7.31216 14.1991 2.36287 14.1975 2.35648C16.4233 -1.39741 21.8802 1.55383 19.9917 5.504ZM139.986 7.42263L139.278 8.98775C140.355 8.71504 141.544 8.5613 142.854 8.5613C156.347 8.5613 155.497 19.2856 155.497 19.2856H147.717C147.717 19.2856 147.717 13.0211 142.976 13.0211C138.571 13.0211 137.539 16.9915 137.239 19.1745H134.674L130.109 29.2732C129.323 31.0086 127.289 31.7737 125.563 30.9877C123.836 30.1983 123.075 28.1534 123.857 26.418C123.849 26.4139 127.408 18.8205 130.321 12.6068L130.329 12.5899C132.341 8.29782 134.042 4.66841 134.042 4.66131C136.028 0.811462 141.615 3.39889 139.986 7.42611V7.42263ZM36.1691 8.93537L36.9662 7.37778L36.9627 7.37428C37.789 5.76328 37.1631 3.78104 35.5493 2.93701C33.9249 2.08598 31.9102 2.70586 31.0558 4.32738L19.5022 26.1986C17.5015 30.3977 23.4155 33.4376 25.6974 29.3961L30.9289 19.1743L33.7981 19.1743C34.1113 16.9912 35.1968 13.0208 39.8244 13.0208C43.3054 13.0208 44.3527 16.0828 44.6678 17.9253L40.3043 26.1765C39.3799 27.9156 40.0953 30.0842 41.8767 30.9432C43.6191 31.7881 45.7228 31.0664 46.5728 29.3308L51.1378 20.0051H51.1414C51.2496 19.7603 51.3303 19.5199 51.3859 19.2853H52.973C52.973 19.2853 53.8672 8.56107 39.6992 8.56107C38.4138 8.56107 37.24 8.69529 36.1691 8.93537ZM73.2349 10.2769L74.7151 7.35279C76.5223 3.40018 71.0415 0.559466 68.8728 4.31688C68.8728 4.32791 67.4512 7.02207 65.7329 10.2769H59.9452C58.5872 10.2769 57.4889 11.3798 57.4889 12.7435C57.4889 14.1073 58.5906 15.2101 59.9452 15.2101H63.1287C61.3199 18.6372 59.7858 21.5472 59.7915 21.5529C58.9296 23.2573 59.6073 25.3382 61.3068 26.2026C61.3422 26.2206 61.3777 26.238 61.4134 26.2546C62.4589 29.053 65.0221 32.1544 71.2486 32.1544C80.6311 32.1544 83.3743 25.0149 84.0862 21.967H76.4607L76.4572 21.9635C76.1725 24.0581 75.3183 27.8714 71.1305 27.8714C67.182 27.8714 66.8714 24.3604 66.9445 22.7045L70.7379 15.2101H76.6957C78.0537 15.2101 79.1519 14.1073 79.1519 12.7435C79.1519 11.3798 78.0503 10.2769 76.6957 10.2769H73.2349ZM88.5937 19.2358L97.6935 19.2358C97.6935 19.2358 98.2688 10.7963 104.164 10.7963C107.499 10.7963 108.595 13.8493 108.94 16.2828H102.487C101.206 16.2828 100.17 17.3384 100.17 18.6421C100.17 19.9457 101.206 21.0014 102.487 21.0014L109.067 21.0014H118.058C118.058 21.0014 120.506 6.84542 104.224 6.84542C87.9417 6.84542 88.5937 19.2358 88.5937 19.2358ZM107.817 23.4645C106.867 25.3556 105.254 27.5915 102.716 27.5915C96.6444 27.5915 97.7686 19.2853 97.7686 19.2853L88.656 19.2853C88.656 19.2853 86.8125 31.7255 102.618 31.7255C112.146 31.7255 115.875 27.0796 117.331 23.468H107.817V23.4645ZM169.009 25.2911L141.994 25.4239C138.243 25.5907 138.254 30.7928 141.994 30.9494L169.009 31.0822C170.664 31.089 172.012 29.7817 172.001 28.1714C171.991 26.5712 170.654 25.2843 169.009 25.2911Z" fill="#CCFF00"/>
<path d="M7.36338 29.4504L6.92111 29.2171L6.92102 29.2173L7.36338 29.4504ZM19.9917 5.504L20.434 5.73723L20.4385 5.72853L20.4428 5.71966L19.9917 5.504ZM2.69602 30.8874L2.93264 30.447L2.93264 30.447L2.69602 30.8874ZM1.27007 26.1837L1.71205 26.4175L2.00985 25.8544L1.39223 25.6988L1.27007 26.1837ZM8.58452 12.7004L9.0239 12.939L9.02399 12.9389L8.58452 12.7004ZM8.58587 12.6979L8.14679 12.4587L8.1464 12.4595L8.58587 12.6979ZM8.58597 12.6977L9.02505 12.9369L9.02535 12.9364L8.58597 12.6977ZM14.1975 2.35648L13.7674 2.10147L13.6628 2.27784L13.7122 2.47686L14.1975 2.35648ZM139.278 8.98775L138.823 8.7818L138.395 9.72711L139.401 9.47245L139.278 8.98775ZM139.986 7.42263H140.486L139.53 7.21668L139.986 7.42263ZM155.497 19.2856V19.7856H155.959L155.995 19.3251L155.497 19.2856ZM147.717 19.2856H147.217V19.7856H147.717V19.2856ZM137.239 19.1745V19.6745H137.675L137.734 19.2425L137.239 19.1745ZM134.674 19.1745V18.6745H134.351L134.218 18.9685L134.674 19.1745ZM130.109 29.2732L130.564 29.4794L130.564 29.4792L130.109 29.2732ZM125.563 30.9877L125.355 31.4425L125.356 31.4428L125.563 30.9877ZM123.857 26.418L124.313 26.6234L124.51 26.1865L124.082 25.9713L123.857 26.418ZM130.321 12.6068L130.774 12.819L130.774 12.8187L130.321 12.6068ZM130.329 12.5899L129.876 12.3777L129.876 12.378L130.329 12.5899ZM134.042 4.66131L133.598 4.4321L133.542 4.53995V4.66131H134.042ZM139.986 7.42611H139.486L140.449 7.61365L139.986 7.42611ZM36.9662 7.37778L37.4113 7.60558L37.5775 7.28094L37.3191 7.02356L36.9662 7.37778ZM36.1691 8.93537L35.724 8.70757L35.2384 9.65643L36.2784 9.42326L36.1691 8.93537ZM36.9627 7.37428L36.5178 7.1461L36.3512 7.47089L36.6098 7.72851L36.9627 7.37428ZM35.5493 2.93701L35.3172 3.37991L35.3176 3.38007L35.5493 2.93701ZM31.0558 4.32738L31.4979 4.56092L31.4982 4.56046L31.0558 4.32738ZM19.5022 26.1986L19.0601 25.965L19.0552 25.9742L19.0508 25.9835L19.5022 26.1986ZM25.6974 29.3961L26.1328 29.6419L26.1378 29.633L26.1425 29.6239L25.6974 29.3961ZM30.9289 19.1743V18.6743H30.6231L30.4838 18.9465L30.9289 19.1743ZM33.7981 19.1743V19.6743H34.2315L34.2931 19.2453L33.7981 19.1743ZM44.6678 17.9253L45.1098 18.159L45.1893 18.0087L45.1606 17.841L44.6678 17.9253ZM40.3043 26.1765L40.7458 26.4111L40.7463 26.4102L40.3043 26.1765ZM41.8767 30.9432L42.0949 30.4933L42.0939 30.4928L41.8767 30.9432ZM46.5728 29.3308L47.0218 29.5507L47.0219 29.5506L46.5728 29.3308ZM51.1378 20.0051V19.5051H50.8259L50.6888 19.7853L51.1378 20.0051ZM51.1414 20.0051V20.5051H51.467L51.5987 20.2073L51.1414 20.0051ZM51.3859 19.2853V18.7853H50.9905L50.8993 19.1701L51.3859 19.2853ZM52.973 19.2853V19.7853H53.433L53.4713 19.3269L52.973 19.2853ZM74.7151 7.35279L75.1612 7.5786L75.1657 7.56974L75.1698 7.5607L74.7151 7.35279ZM73.2349 10.2769L72.7888 10.0511L72.4215 10.7769H73.2349V10.2769ZM68.8728 4.31688L68.4398 4.06694L68.3728 4.18295V4.31688H68.8728ZM65.7329 10.2769V10.7769H66.0344L66.1751 10.5104L65.7329 10.2769ZM63.1287 15.2101L63.5709 15.4435L63.9579 14.7101H63.1287V15.2101ZM59.7915 21.5529L60.2377 21.7785L60.4008 21.4559L60.1455 21.1999L59.7915 21.5529ZM61.3068 26.2026L61.0801 26.6483L61.0801 26.6483L61.3068 26.2026ZM61.4134 26.2546L61.8818 26.0796L61.8102 25.8881L61.6249 25.8016L61.4134 26.2546ZM84.0862 21.967L84.573 22.0807L84.7164 21.467H84.0862V21.967ZM76.4607 21.967L76.1064 22.3198L76.2529 22.467H76.4607V21.967ZM76.4572 21.9635L76.8116 21.6107L76.098 20.894L75.9618 21.8962L76.4572 21.9635ZM66.9445 22.7045L66.4984 22.4787L66.4497 22.5748L66.4449 22.6824L66.9445 22.7045ZM70.7379 15.2101V14.7101H70.4306L70.2918 14.9843L70.7379 15.2101ZM97.6935 19.2358V19.7358H98.1606L98.1923 19.2699L97.6935 19.2358ZM88.5937 19.2358L88.0943 19.2621L88.1193 19.7358H88.5937V19.2358ZM108.94 16.2828V16.7828H109.516L109.435 16.2126L108.94 16.2828ZM102.487 21.0014L102.487 20.5014H102.487V21.0014ZM109.067 21.0014L109.067 21.5014H109.067V21.0014ZM118.058 21.0014V21.5014H118.479L118.551 21.0866L118.058 21.0014ZM107.817 23.4645H108.317L107.37 23.2401L107.817 23.4645ZM97.7686 19.2853L98.2641 19.3524L98.3409 18.7853H97.7686V19.2853ZM88.656 19.2853V18.7853H88.2247L88.1614 19.212L88.656 19.2853ZM117.331 23.468L117.795 23.655L118.072 22.968H117.331V23.468ZM107.817 23.468H107.317V23.968H107.817V23.468ZM141.994 25.4239L141.992 24.9239L141.982 24.924L141.972 24.9244L141.994 25.4239ZM169.009 25.2911L169.007 24.7911L169.007 24.7912L169.009 25.2911ZM141.994 30.9494L141.973 31.449L141.983 31.4494L141.992 31.4494L141.994 30.9494ZM169.009 31.0822L169.007 31.5822L169.007 31.5822L169.009 31.0822ZM172.001 28.1714L172.501 28.1681L172.501 28.1681L172.001 28.1714ZM7.80565 29.6836L20.434 5.73723L19.5494 5.27076L6.92111 29.2171L7.80565 29.6836ZM2.45939 31.3279C4.38936 32.3647 6.78352 31.6235 7.80573 29.6834L6.92102 29.2173C6.15558 30.6701 4.36929 31.2187 2.93264 30.447L2.45939 31.3279ZM0.828088 25.9499C-0.197308 27.8885 0.533116 30.2931 2.45939 31.3279L2.93264 30.447C1.49229 29.6732 0.942842 27.8717 1.71205 26.4175L0.828088 25.9499ZM8.14514 12.4618C6.39895 15.6769 4.5684 19.0473 3.17535 21.6142C2.47883 22.8976 1.89161 23.9803 1.47897 24.7423C1.27267 25.1232 1.10987 25.4243 0.99883 25.6302C0.943358 25.7331 0.900537 25.8128 0.87159 25.867C0.857216 25.8939 0.845737 25.9155 0.837694 25.9308C0.833871 25.9381 0.829764 25.946 0.82624 25.953C0.824874 25.9557 0.821388 25.9626 0.817592 25.9707C0.816462 25.9731 0.810847 25.9851 0.804795 26.0005C0.800985 26.0105 0.790864 26.0409 0.78519 26.0615C0.773702 26.1234 0.876411 26.492 1.14791 26.6685L1.39223 25.6988C1.6637 25.8754 1.76641 26.2439 1.75495 26.3056C1.7493 26.3262 1.73924 26.3564 1.73552 26.3662C1.72964 26.3812 1.72432 26.3924 1.72359 26.394C1.72182 26.3978 1.72045 26.4006 1.71993 26.4016C1.71929 26.4029 1.71887 26.4037 1.71878 26.4039C1.71873 26.404 1.71995 26.4016 1.72325 26.3953C1.72947 26.3835 1.73949 26.3646 1.7536 26.3382C1.78163 26.2857 1.82372 26.2074 1.87906 26.1048C1.98964 25.8997 2.15208 25.5993 2.35831 25.2185C2.77073 24.4569 3.35777 23.3745 4.05426 22.0912C5.44722 19.5245 7.27768 16.1542 9.0239 12.939L8.14514 12.4618ZM8.1464 12.4595L8.14505 12.4619L9.02399 12.9389L9.02534 12.9364L8.1464 12.4595ZM8.1469 12.4585L8.14679 12.4587L9.02494 12.9371L9.02505 12.9369L8.1469 12.4585ZM13.7122 2.47686C13.6975 2.36109 13.7169 2.21864 13.7251 2.19265C13.7291 2.1816 13.7358 2.16462 13.7383 2.15869C13.7425 2.14886 13.7461 2.14144 13.7469 2.13992C13.7482 2.13714 13.7492 2.13508 13.7497 2.13423C13.7502 2.13322 13.7505 2.13256 13.7506 2.13235C13.7508 2.13207 13.75 2.13358 13.7476 2.13802C13.7433 2.14632 13.7362 2.15962 13.7261 2.17837C13.7062 2.21557 13.6763 2.27113 13.6368 2.34426C13.5579 2.49037 13.4418 2.70498 13.2931 2.97946C12.9957 3.52833 12.5685 4.31575 12.0498 5.27139C11.0124 7.18264 9.60912 9.76629 8.14659 12.4591L9.02535 12.9364C10.4879 10.2436 11.8912 7.65983 12.9286 5.74844C13.4474 4.79276 13.8747 4.00507 14.1723 3.45585C14.3211 3.18128 14.4375 2.96611 14.5168 2.81929C14.5564 2.74595 14.5869 2.68927 14.6076 2.65064C14.6179 2.63148 14.6261 2.61596 14.632 2.60483C14.6348 2.59955 14.6379 2.59369 14.6406 2.58842C14.6417 2.58629 14.6443 2.58117 14.6472 2.57515C14.6482 2.57298 14.6521 2.56506 14.6565 2.55488C14.6591 2.54877 14.6658 2.53165 14.6698 2.5205C14.6781 2.49441 14.6975 2.3519 14.6828 2.23611L13.7122 2.47686ZM20.4428 5.71966C21.5152 3.47651 20.4881 1.47565 18.8758 0.601645C18.0752 0.167683 17.1179 0.00195243 16.1915 0.22274C15.2562 0.445641 14.3884 1.05421 13.7674 2.10147L14.6276 2.6115C15.1195 1.78181 15.7685 1.35158 16.4234 1.1955C17.0871 1.0373 17.7934 1.15241 18.3992 1.48079C19.5996 2.13148 20.3567 3.58132 19.5406 5.28833L20.4428 5.71966ZM139.734 9.19371L140.441 7.62858L139.53 7.21668L138.823 8.7818L139.734 9.19371ZM142.854 8.0613C141.504 8.0613 140.274 8.21972 139.156 8.50305L139.401 9.47245C140.436 9.21036 141.583 9.0613 142.854 9.0613V8.0613ZM155.497 19.2856C155.995 19.3251 155.995 19.3247 155.995 19.3244C155.995 19.3242 155.995 19.3237 155.995 19.3234C155.995 19.3226 155.996 19.3217 155.996 19.3207C155.996 19.3186 155.996 19.3158 155.996 19.3124C155.997 19.3055 155.997 19.2961 155.998 19.2843C155.999 19.2605 156.001 19.2268 156.003 19.1838C156.006 19.0978 156.009 18.9746 156.007 18.8195C156.004 18.5094 155.983 18.0704 155.915 17.5453C155.778 16.497 155.449 15.0923 154.674 13.6825C153.101 10.8226 149.76 8.0613 142.854 8.0613V9.0613C149.441 9.0613 152.422 11.6622 153.797 14.1643C154.496 15.4356 154.798 16.712 154.923 17.6745C154.986 18.1548 155.004 18.5536 155.007 18.83C155.009 18.9681 155.006 19.0753 155.003 19.1465C155.002 19.182 155.001 19.2085 155 19.2253C154.999 19.2338 154.999 19.2397 154.999 19.2432C154.998 19.245 154.998 19.2461 154.998 19.2465C154.998 19.2468 154.998 19.2469 154.998 19.2468C154.998 19.2467 154.998 19.2465 154.998 19.2465C154.998 19.2463 154.998 19.246 155.497 19.2856ZM147.717 19.7856H155.497V18.7856H147.717V19.7856ZM142.976 13.5211C144.04 13.5211 144.811 13.8683 145.386 14.3751C145.972 14.8908 146.378 15.5938 146.657 16.3303C146.935 17.0648 147.076 17.8064 147.147 18.3693C147.182 18.6495 147.2 18.8822 147.208 19.0434C147.213 19.1239 147.215 19.1864 147.216 19.2278C147.216 19.2485 147.217 19.2639 147.217 19.2737C147.217 19.2786 147.217 19.282 147.217 19.284C147.217 19.285 147.217 19.2857 147.217 19.2859C147.217 19.286 147.217 19.2861 147.217 19.286C147.217 19.286 147.217 19.2859 147.217 19.2859C147.217 19.2857 147.217 19.2856 147.717 19.2856C148.217 19.2856 148.217 19.2854 148.217 19.2851C148.217 19.285 148.217 19.2848 148.217 19.2845C148.217 19.2841 148.217 19.2836 148.217 19.2829C148.217 19.2817 148.217 19.28 148.217 19.278C148.217 19.274 148.217 19.2685 148.217 19.2615C148.217 19.2475 148.216 19.2278 148.216 19.2026C148.214 19.1523 148.212 19.0802 148.207 18.9894C148.197 18.808 148.178 18.5513 148.139 18.2442C148.062 17.6325 147.907 16.808 147.592 15.9764C147.278 15.1467 146.795 14.2836 146.048 13.6247C145.29 12.9569 144.283 12.5211 142.976 12.5211V13.5211ZM137.734 19.2425C137.881 18.1749 138.201 16.7273 138.984 15.5571C139.747 14.4159 140.957 13.5211 142.976 13.5211V12.5211C140.59 12.5211 139.082 13.6114 138.152 15.0012C137.242 16.3619 136.897 17.9911 136.744 19.1065L137.734 19.2425ZM134.674 19.6745H137.239V18.6745H134.674V19.6745ZM130.564 29.4792L135.129 19.3805L134.218 18.9685L129.653 29.0673L130.564 29.4792ZM125.356 31.4428C127.334 32.3438 129.665 31.4658 130.564 29.4794L129.653 29.0671C128.981 30.5514 127.244 31.2036 125.77 30.5327L125.356 31.4428ZM123.401 26.2126C122.507 28.1968 123.376 30.5377 125.355 31.4425L125.771 30.533C124.296 29.8589 123.643 28.11 124.313 26.6234L123.401 26.2126ZM129.868 12.3945C128.412 15.5014 126.794 18.9532 125.541 21.6289C124.914 22.9668 124.379 24.1107 124.001 24.9205C123.812 25.3253 123.662 25.647 123.56 25.8676C123.508 25.9779 123.469 26.0635 123.442 26.1219C123.429 26.1509 123.418 26.1743 123.41 26.191C123.407 26.199 123.403 26.2077 123.4 26.2156C123.398 26.2187 123.395 26.2266 123.391 26.2359C123.39 26.2389 123.385 26.2522 123.38 26.2694C123.376 26.2803 123.368 26.3125 123.364 26.334C123.358 26.3918 123.44 26.6939 123.633 26.8648L124.082 25.9713C124.274 26.1421 124.356 26.4441 124.35 26.5018C124.346 26.5232 124.338 26.5551 124.335 26.5658C124.33 26.5825 124.325 26.5951 124.324 26.5971C124.322 26.6015 124.321 26.6048 124.32 26.6061C124.32 26.6076 124.319 26.6086 124.319 26.6089C124.319 26.6094 124.32 26.607 124.323 26.6003C124.329 26.5877 124.338 26.5675 124.351 26.5391C124.377 26.4828 124.415 26.3988 124.467 26.2888C124.569 26.0692 124.718 25.7483 124.907 25.3436C125.285 24.5343 125.82 23.3908 126.447 22.053C127.699 19.3775 129.317 15.9259 130.774 12.819L129.868 12.3945ZM129.876 12.378L129.868 12.3948L130.774 12.8187L130.782 12.8019L129.876 12.378ZM133.542 4.66131C133.545 4.60389 133.56 4.52962 133.565 4.5122C133.568 4.50384 133.572 4.49066 133.574 4.48586C133.577 4.47755 133.58 4.47123 133.58 4.46964C133.581 4.46709 133.582 4.46516 133.583 4.46428C133.583 4.46326 133.583 4.46255 133.584 4.46224C133.584 4.46148 133.584 4.46217 133.582 4.46535C133.58 4.47119 133.575 4.48078 133.569 4.49458C133.556 4.52191 133.537 4.56281 133.512 4.61687C133.462 4.72482 133.387 4.88367 133.292 5.08778C133.101 5.49594 132.826 6.08427 132.487 6.80663C131.81 8.25132 130.882 10.2316 129.876 12.3777L130.782 12.8022C131.788 10.6561 132.716 8.67568 133.393 7.23086C133.731 6.50846 134.007 5.91986 134.198 5.51137C134.293 5.30716 134.368 5.14777 134.418 5.03911C134.444 4.98486 134.463 4.94287 134.476 4.91416C134.483 4.89994 134.488 4.88822 134.492 4.87965C134.494 4.87562 134.496 4.87083 134.498 4.86634C134.499 4.86452 134.501 4.86002 134.503 4.85464C134.504 4.85256 134.507 4.84585 134.51 4.83726C134.512 4.83232 134.517 4.81903 134.519 4.81059C134.525 4.79309 134.539 4.71876 134.542 4.66131H133.542ZM140.449 7.61365C141.376 5.32426 140.234 3.40391 138.58 2.63629C137.759 2.25517 136.799 2.14941 135.893 2.42436C134.978 2.70194 134.152 3.35727 133.598 4.4321L134.487 4.89052C134.925 4.04043 135.543 3.57549 136.183 3.3813C136.832 3.18447 137.539 3.25542 138.159 3.54334C139.388 4.11377 140.225 5.50074 139.522 7.23857L140.449 7.61365ZM139.486 7.42263V7.42611H140.486V7.42263H139.486ZM36.5211 7.14999L35.724 8.70757L36.6142 9.16317L37.4113 7.60558L36.5211 7.14999ZM36.6098 7.72851L36.6134 7.73201L37.3191 7.02356L37.3156 7.02006L36.6098 7.72851ZM35.3176 3.38007C36.6882 4.09688 37.2187 5.77949 36.5178 7.1461L37.4076 7.60247C38.3592 5.74707 37.6381 3.46519 35.781 2.49394L35.3176 3.38007ZM31.4982 4.56046C32.2231 3.18454 33.9353 2.65592 35.3172 3.37991L35.7813 2.49411C33.9144 1.51604 31.5973 2.22719 30.6135 4.0943L31.4982 4.56046ZM19.9443 26.4321L31.4979 4.56092L30.6137 4.09383L19.0601 25.965L19.9443 26.4321ZM25.262 29.1502C24.7543 30.0494 24.0652 30.526 23.3605 30.7078C22.6466 30.892 21.8814 30.7823 21.2228 30.4431C20.5641 30.1038 20.0332 29.5459 19.7726 28.8604C19.5155 28.1838 19.5082 27.3483 19.9535 26.4136L19.0508 25.9835C18.4958 27.1484 18.4775 28.2675 18.8379 29.2157C19.1948 30.1549 19.9099 30.8916 20.7649 31.3321C21.6199 31.7725 22.636 31.9274 23.6103 31.6761C24.5936 31.4224 25.4995 30.7635 26.1328 29.6419L25.262 29.1502ZM30.4838 18.9465L25.2523 29.1683L26.1425 29.6239L31.3739 19.4021L30.4838 18.9465ZM33.7981 18.6743L30.9289 18.6743V19.6743L33.7981 19.6743V18.6743ZM39.8244 12.5208C37.338 12.5208 35.7611 13.601 34.7842 14.9915C33.8274 16.3535 33.4636 17.9854 33.3032 19.1033L34.2931 19.2453C34.4459 18.1801 34.7814 16.7352 35.6025 15.5663C36.4036 14.4259 37.6833 13.5208 39.8244 13.5208V12.5208ZM45.1606 17.841C44.9973 16.8857 44.6386 15.5712 43.8353 14.4848C43.015 13.3754 41.74 12.5208 39.8244 12.5208V13.5208C41.3898 13.5208 42.3789 14.1972 43.0313 15.0794C43.7006 15.9846 44.0232 17.1223 44.175 18.0096L45.1606 17.841ZM40.7463 26.4102L45.1098 18.159L44.2258 17.6915L39.8623 25.9427L40.7463 26.4102ZM42.0939 30.4928C40.5663 29.7562 39.9556 27.8978 40.7458 26.4111L39.8627 25.9418C38.8042 27.9334 39.6244 30.4122 41.6595 31.3935L42.0939 30.4928ZM46.1237 29.1109C45.3954 30.598 43.5906 31.2185 42.0949 30.4933L41.6585 31.3931C43.6477 32.3576 46.0502 31.5347 47.0218 29.5507L46.1237 29.1109ZM50.6888 19.7853L46.1237 29.111L47.0219 29.5506L51.5869 20.2249L50.6888 19.7853ZM51.1414 19.5051H51.1378V20.5051H51.1414V19.5051ZM50.8993 19.1701C50.8511 19.3735 50.7805 19.5848 50.6841 19.8029L51.5987 20.2073C51.7187 19.9357 51.8094 19.6664 51.8724 19.4006L50.8993 19.1701ZM52.973 18.7853H51.3859V19.7853H52.973V18.7853ZM39.6992 9.06107C46.6354 9.06107 49.7723 11.6718 51.2161 14.1731C51.949 15.4431 52.2646 16.7173 52.396 17.6774C52.4615 18.1566 52.4808 18.5545 52.4838 18.83C52.4853 18.9677 52.4828 19.0745 52.48 19.1452C52.4786 19.1806 52.4771 19.2069 52.4761 19.2236C52.4756 19.2319 52.4752 19.2378 52.4749 19.2412C52.4748 19.2429 52.4747 19.244 52.4747 19.2444C52.4747 19.2446 52.4747 19.2447 52.4747 19.2446C52.4747 19.2445 52.4747 19.2443 52.4747 19.2443C52.4747 19.2441 52.4747 19.2438 52.973 19.2853C53.4713 19.3269 53.4713 19.3265 53.4713 19.3261C53.4714 19.3259 53.4714 19.3255 53.4714 19.3251C53.4715 19.3244 53.4716 19.3234 53.4716 19.3223C53.4718 19.3202 53.472 19.3174 53.4723 19.3139C53.4728 19.307 53.4734 19.2975 53.4742 19.2855C53.4757 19.2616 53.4775 19.2277 53.4792 19.1845C53.4826 19.0982 53.4854 18.9746 53.4837 18.819C53.4803 18.5081 53.4587 18.0681 53.3867 17.5419C53.243 16.4913 52.8966 15.0844 52.0821 13.6733C50.4309 10.8125 46.931 8.06107 39.6992 8.06107V9.06107ZM36.2784 9.42326C37.3118 9.1916 38.4488 9.06107 39.6992 9.06107V8.06107C38.3787 8.06107 37.1682 8.19898 36.0597 8.44748L36.2784 9.42326ZM74.269 7.12698L72.7888 10.0511L73.6811 10.5028L75.1612 7.5786L74.269 7.12698ZM69.3059 4.56683C69.7848 3.73711 70.4258 3.30008 71.0776 3.13493C71.7381 2.96756 72.4449 3.07091 73.0546 3.38737C74.263 4.01453 75.0399 5.44004 74.2604 7.14488L75.1698 7.5607C76.1975 5.31294 75.1376 3.34179 73.5153 2.49979C72.7096 2.08166 71.7525 1.93231 70.8319 2.16556C69.9026 2.40104 69.0452 3.01795 68.4398 4.06694L69.3059 4.56683ZM66.1751 10.5104C67.0342 8.88295 67.8193 7.39555 68.3896 6.31361C68.6747 5.77268 68.9062 5.33286 69.0666 5.0275C69.1467 4.8749 69.2092 4.75545 69.2519 4.67361C69.2731 4.63284 69.2898 4.60057 69.3014 4.57794C69.3071 4.5669 69.3123 4.55657 69.3165 4.54816C69.3184 4.54442 69.3215 4.53813 69.3247 4.53127C69.326 4.5285 69.3296 4.52074 69.3337 4.51095C69.3355 4.50672 69.3401 4.49556 69.3451 4.48106C69.3477 4.47337 69.3537 4.45386 69.3569 4.44195C69.3618 4.42158 69.371 4.35913 69.3728 4.31688H68.3728C68.3746 4.27469 68.3839 4.21229 68.3887 4.19201C68.3919 4.18019 68.3978 4.16078 68.4004 4.15321C68.4053 4.13896 68.4099 4.12814 68.4115 4.12431C68.4152 4.11535 68.4183 4.10874 68.4189 4.10745C68.4208 4.10353 68.4218 4.10148 68.4209 4.10327C68.4196 4.10589 68.4167 4.11172 68.4115 4.12181C68.4014 4.14145 68.3859 4.17137 68.3649 4.21168C68.3231 4.29201 68.2612 4.41027 68.1812 4.56265C68.0212 4.86726 67.79 5.30649 67.5049 5.84733C66.9348 6.92894 66.1499 8.41607 65.2908 10.0435L66.1751 10.5104ZM59.9452 10.7769H65.7329V9.77695H59.9452V10.7769ZM57.9889 12.7435C57.9889 11.6539 58.8653 10.7769 59.9452 10.7769V9.77695C58.309 9.77695 56.9889 11.1056 56.9889 12.7435H57.9889ZM59.9452 14.7101C58.8683 14.7101 57.9889 13.8327 57.9889 12.7435H56.9889C56.9889 14.3819 58.313 15.7101 59.9452 15.7101V14.7101ZM63.1287 14.7101H59.9452V15.7101H63.1287V14.7101ZM60.1455 21.1999C60.2282 21.3095 60.2885 21.4991 60.2914 21.5615C60.2898 21.5931 60.2833 21.6429 60.2796 21.661C60.2727 21.6919 60.2644 21.7152 60.2623 21.721C60.2564 21.7373 60.251 21.7495 60.2502 21.7515C60.2471 21.7585 60.2449 21.7629 60.2457 21.7614C60.2464 21.7599 60.2489 21.7547 60.2543 21.7441C60.2646 21.7238 60.2808 21.6922 60.3031 21.6491C60.3475 21.5634 60.4135 21.4367 60.4991 21.2733C60.6701 20.9466 60.9176 20.4757 61.2221 19.8974C61.8309 18.7411 62.6665 17.157 63.5709 15.4435L62.6865 14.9767C61.7821 16.6903 60.9463 18.2747 60.3372 19.4316C60.0327 20.0099 59.7847 20.4817 59.6132 20.8094C59.5275 20.9732 59.4605 21.1016 59.415 21.1894C59.3924 21.2332 59.3744 21.2681 59.362 21.2927C59.356 21.3045 59.35 21.3164 59.3451 21.3265C59.3431 21.3307 59.3389 21.3395 59.3345 21.3496C59.333 21.353 59.3271 21.3664 59.3209 21.3835C59.3187 21.3897 59.3102 21.4133 59.3033 21.4444C59.2996 21.4627 59.2931 21.5125 59.2915 21.5442C59.2944 21.6067 59.3547 21.7963 59.4374 21.9059L60.1455 21.1999ZM61.5334 25.757C60.0806 25.018 59.4997 23.2379 60.2377 21.7785L59.3453 21.3273C58.3594 23.2768 59.134 25.6584 61.0801 26.6483L61.5334 25.757ZM61.6249 25.8016C61.5943 25.7873 61.5638 25.7724 61.5334 25.757L61.0801 26.6483C61.1205 26.6688 61.1611 26.6886 61.2019 26.7077L61.6249 25.8016ZM71.2486 31.6544C68.2213 31.6544 66.1317 30.9019 64.6818 29.8493C63.2296 28.795 62.3789 27.4102 61.8818 26.0796L60.945 26.4296C61.4934 27.8974 62.447 29.4625 64.0943 30.6585C65.7441 31.8562 68.0493 32.6544 71.2486 32.6544V31.6544ZM83.5993 21.8533C83.2538 23.3324 82.4173 25.7895 80.5471 27.8693C78.6919 29.9325 75.7944 31.6544 71.2486 31.6544V32.6544C76.0852 32.6544 79.2507 30.8066 81.2907 28.538C83.3156 26.2861 84.2067 23.6494 84.573 22.0807L83.5993 21.8533ZM76.4607 22.467H84.0862V21.467H76.4607V22.467ZM76.1029 22.3163L76.1064 22.3198L76.815 21.6142L76.8116 21.6107L76.1029 22.3163ZM71.1305 28.3714C73.4125 28.3714 74.8246 27.3156 75.6794 25.9712C76.5131 24.66 76.8085 23.0917 76.9527 22.0309L75.9618 21.8962C75.8212 22.9299 75.5471 24.3155 74.8356 25.4346C74.1451 26.5205 73.0363 27.3714 71.1305 27.3714V28.3714ZM66.4449 22.6824C66.4071 23.5392 66.4627 24.9372 67.0855 26.1389C67.4013 26.7485 67.8664 27.3138 68.5404 27.724C69.2144 28.1343 70.0674 28.3714 71.1305 28.3714V27.3714C70.2193 27.3714 69.5528 27.1696 69.0604 26.8698C68.5679 26.57 68.2196 26.154 67.9733 25.6789C67.4719 24.7112 67.4087 23.5257 67.444 22.7265L66.4449 22.6824ZM70.2918 14.9843L66.4984 22.4787L67.3906 22.9303L71.184 15.4359L70.2918 14.9843ZM76.6957 14.7101H70.7379V15.7101H76.6957V14.7101ZM78.6519 12.7435C78.6519 13.8331 77.7756 14.7101 76.6957 14.7101V15.7101C78.3318 15.7101 79.6519 14.3814 79.6519 12.7435H78.6519ZM76.6957 10.7769C77.7726 10.7769 78.6519 11.6544 78.6519 12.7435H79.6519C79.6519 11.1052 78.3279 9.77695 76.6957 9.77695V10.7769ZM73.2349 10.7769H76.6957V9.77695H73.2349V10.7769ZM97.6935 18.7358L88.5937 18.7358V19.7358L97.6935 19.7358V18.7358ZM104.164 10.2963C100.913 10.2963 99.1665 12.6441 98.2567 14.8235C97.7983 15.9214 97.5339 17.0132 97.3838 17.8264C97.3085 18.2342 97.2615 18.5747 97.2332 18.8146C97.219 18.9346 97.2095 19.0296 97.2035 19.0955C97.2004 19.1285 97.1983 19.1542 97.1969 19.172C97.1962 19.181 97.1956 19.188 97.1953 19.193C97.1951 19.1955 97.1949 19.1975 97.1948 19.1989C97.1948 19.1997 97.1947 19.2003 97.1947 19.2008C97.1947 19.201 97.1947 19.2013 97.1947 19.2014C97.1947 19.2016 97.1946 19.2018 97.6935 19.2358C98.1923 19.2699 98.1923 19.27 98.1923 19.2701C98.1923 19.2701 98.1923 19.2702 98.1923 19.2701C98.1923 19.2701 98.1923 19.27 98.1923 19.2697C98.1924 19.2691 98.1925 19.2681 98.1926 19.2665C98.1928 19.2634 98.1932 19.2583 98.1937 19.2512C98.1949 19.2372 98.1967 19.2155 98.1993 19.1866C98.2046 19.1289 98.2132 19.0426 98.2263 18.9318C98.2524 18.7102 98.2964 18.3914 98.3672 18.0079C98.5092 17.2387 98.7571 16.2206 99.1795 15.2087C100.031 13.1684 101.52 11.2963 104.164 11.2963V10.2963ZM109.435 16.2126C109.258 14.964 108.883 13.5037 108.085 12.3437C107.27 11.1583 106.017 10.2963 104.164 10.2963V11.2963C105.647 11.2963 106.608 11.9609 107.261 12.9103C107.932 13.8851 108.277 15.168 108.445 16.3529L109.435 16.2126ZM102.487 16.7828H108.94V15.7828H102.487V16.7828ZM100.67 18.6421C100.67 17.606 101.491 16.7828 102.487 16.7828V15.7828C100.922 15.7828 99.6697 17.0709 99.6697 18.6421H100.67ZM102.487 20.5014C101.491 20.5014 100.67 19.6782 100.67 18.6421H99.6697C99.6697 20.2133 100.922 21.5014 102.487 21.5014V20.5014ZM109.067 20.5014L102.487 20.5014L102.487 21.5014L109.067 21.5014L109.067 20.5014ZM118.058 20.5014H109.067V21.5014H118.058V20.5014ZM104.224 7.34542C108.222 7.34542 111.022 8.21396 112.984 9.47764C114.943 10.7398 116.103 12.42 116.783 14.11C117.465 15.8058 117.662 17.5105 117.686 18.799C117.698 19.4415 117.667 19.9761 117.634 20.348C117.617 20.5338 117.599 20.6787 117.586 20.7758C117.58 20.8243 117.574 20.8609 117.571 20.8846C117.569 20.8964 117.567 20.9051 117.567 20.9104C117.566 20.913 117.566 20.9149 117.566 20.9159C117.566 20.9163 117.566 20.9166 117.566 20.9167C117.565 20.9167 117.566 20.9166 117.566 20.9166C117.566 20.9165 117.566 20.9163 118.058 21.0014C118.551 21.0866 118.551 21.0863 118.551 21.0859C118.551 21.0857 118.551 21.0853 118.551 21.0849C118.551 21.0841 118.552 21.0831 118.552 21.0819C118.552 21.0794 118.553 21.0761 118.553 21.072C118.555 21.0637 118.557 21.052 118.559 21.0371C118.564 21.0072 118.57 20.9643 118.577 20.9091C118.592 20.7989 118.611 20.6396 118.63 20.4384C118.666 20.0361 118.699 19.4647 118.686 18.7802C118.661 17.4144 118.452 15.5801 117.711 13.7369C116.967 11.8879 115.686 10.0291 113.525 8.63696C111.366 7.24638 108.367 6.34542 104.224 6.34542V7.34542ZM88.5937 19.2358C89.093 19.2096 89.093 19.2098 89.093 19.2101C89.093 19.2101 89.093 19.2103 89.093 19.2103C89.093 19.2103 89.093 19.2102 89.093 19.2099C89.0929 19.2093 89.0929 19.2079 89.0928 19.2058C89.0926 19.2016 89.0923 19.1945 89.092 19.1846C89.0914 19.1648 89.0907 19.1338 89.0903 19.0923C89.0896 19.0093 89.0904 18.8846 89.097 18.7241C89.1103 18.4028 89.1466 17.9396 89.2394 17.3819C89.4253 16.2649 89.8357 14.7803 90.7308 13.2993C92.4998 10.3725 96.2317 7.34542 104.224 7.34542V6.34542C95.9337 6.34542 91.8505 9.51355 89.875 12.782C88.8979 14.3986 88.4537 16.0116 88.253 17.2178C88.1525 17.8217 88.1126 18.3265 88.0979 18.6828C88.0905 18.8611 88.0895 19.0026 88.0903 19.1011C88.0908 19.1504 88.0917 19.1889 88.0925 19.216C88.0929 19.2296 88.0934 19.2402 88.0937 19.2479C88.0938 19.2518 88.094 19.2549 88.0941 19.2573C88.0942 19.2585 88.0942 19.2595 88.0942 19.2603C88.0943 19.2607 88.0943 19.2611 88.0943 19.2613C88.0943 19.2618 88.0943 19.2621 88.5937 19.2358ZM102.716 28.0915C104.146 28.0915 105.301 27.4575 106.206 26.6001C107.105 25.7483 107.777 24.6592 108.264 23.6889L107.37 23.2401C106.908 24.1609 106.298 25.1353 105.518 25.8743C104.744 26.6076 103.824 27.0915 102.716 27.0915V28.0915ZM97.7686 19.2853C97.2732 19.2182 97.2731 19.2185 97.2731 19.2187C97.2731 19.2188 97.273 19.2191 97.273 19.2193C97.2729 19.2198 97.2729 19.2204 97.2728 19.2212C97.2726 19.2226 97.2723 19.2246 97.272 19.2271C97.2713 19.232 97.2705 19.239 97.2694 19.2478C97.2672 19.2655 97.2642 19.2909 97.2605 19.3234C97.2533 19.3885 97.2438 19.4823 97.2339 19.6008C97.2142 19.8376 97.1933 20.1737 97.1879 20.5764C97.177 21.3785 97.2272 22.4599 97.4782 23.5505C97.7283 24.6375 98.1868 25.7722 99.021 26.6401C99.8693 27.5227 101.07 28.0915 102.716 28.0915V27.0915C101.326 27.0915 100.391 26.622 99.742 25.9472C99.0794 25.2578 98.6805 24.3159 98.4527 23.3263C98.2258 22.3404 98.1776 21.3452 98.1878 20.5899C98.1929 20.2139 98.2124 19.9011 98.2305 19.6836C98.2395 19.575 98.2482 19.4903 98.2544 19.4337C98.2576 19.4055 98.2601 19.3842 98.2618 19.3705C98.2627 19.3636 98.2633 19.3586 98.2637 19.3556C98.2639 19.3541 98.264 19.353 98.2641 19.3525C98.2641 19.3522 98.2642 19.3521 98.2642 19.3521C98.2642 19.352 98.2642 19.3521 98.2642 19.3521C98.2641 19.3522 98.2641 19.3524 97.7686 19.2853ZM88.656 19.7853L97.7686 19.7853V18.7853L88.656 18.7853V19.7853ZM102.618 31.2255C98.7316 31.2255 95.9734 30.4608 94.0159 29.3471C92.0624 28.2357 90.8774 26.7603 90.1595 25.2864C89.4387 23.8067 89.1853 22.3201 89.1139 21.1974C89.0783 20.6373 89.0883 20.1718 89.1069 19.8485C89.1161 19.687 89.1275 19.5614 89.1364 19.4776C89.1408 19.4358 89.1446 19.4044 89.1472 19.3843C89.1485 19.3743 89.1494 19.3671 89.15 19.3627C89.1503 19.3606 89.1505 19.3591 89.1506 19.3584C89.1507 19.3581 89.1507 19.3579 89.1507 19.358C89.1507 19.358 89.1507 19.3581 89.1507 19.3581C89.1507 19.3584 89.1506 19.3586 88.656 19.2853C88.1614 19.212 88.1614 19.2124 88.1613 19.2128C88.1613 19.213 88.1612 19.2134 88.1612 19.2138C88.161 19.2146 88.1609 19.2155 88.1607 19.2167C88.1604 19.219 88.16 19.2221 88.1594 19.2259C88.1584 19.2336 88.157 19.2442 88.1552 19.2577C88.1518 19.2846 88.1472 19.3231 88.142 19.3724C88.1315 19.4709 88.1188 19.6125 88.1085 19.7912C88.088 20.1482 88.0774 20.6546 88.1159 21.2608C88.1929 22.4706 88.4664 24.0941 89.2605 25.7243C90.0574 27.3605 91.3752 28.9952 93.5213 30.2163C95.6636 31.4351 98.602 32.2255 102.618 32.2255V31.2255ZM116.867 23.2811C116.167 25.0182 114.924 26.9958 112.715 28.5414C110.508 30.0857 107.298 31.2255 102.618 31.2255V32.2255C107.466 32.2255 110.885 31.0422 113.288 29.3607C115.69 27.6805 117.039 25.5294 117.795 23.655L116.867 23.2811ZM107.817 23.968H117.331V22.968H107.817V23.968ZM107.317 23.4645V23.468H108.317V23.4645H107.317ZM141.997 25.9239L169.012 25.7911L169.007 24.7912L141.992 24.9239L141.997 25.9239ZM142.015 30.4499C140.435 30.3837 139.686 29.2859 139.685 28.19C139.684 27.6336 139.878 27.0862 140.255 26.6724C140.627 26.2646 141.201 25.9597 142.017 25.9234L141.972 24.9244C140.912 24.9716 140.081 25.3795 139.516 25.9988C138.957 26.6123 138.684 27.4065 138.685 28.191C138.686 29.777 139.813 31.3585 141.973 31.449L142.015 30.4499ZM169.012 30.5822L141.997 30.4494L141.992 31.4494L169.007 31.5822L169.012 30.5822ZM171.501 28.1746C171.51 29.4923 170.403 30.5879 169.011 30.5822L169.007 31.5822C170.926 31.5901 172.513 30.0711 172.501 28.1681L171.501 28.1746ZM169.011 25.7911C170.393 25.7854 171.492 26.863 171.501 28.1746L172.501 28.1681C172.489 26.2795 170.914 24.7833 169.007 24.7911L169.011 25.7911Z" fill="#9E9DAF" mask="url(#path-14-outside-1_88_18233)"/>
</svg>
